<svg width="70" height="60" viewBox="0 0 70 60" fill="none" xmlns="http://www.w3.org/2000/svg">
<path d="M14.5832 32.5H49.1748L38.5873 43.4C38.3422 43.6528 38.1576 43.9445 38.0439 44.2585C37.9303 44.5724 37.89 44.9025 37.9252 45.2298C37.9963 45.8909 38.3709 46.5007 38.9665 46.925C39.5621 47.3494 40.33 47.5535 41.1013 47.4926C41.8725 47.4316 42.5839 47.1105 43.079 46.6L57.6623 31.6C57.7605 31.4807 57.8482 31.3554 57.9248 31.225C57.9248 31.1 58.0707 31.025 58.129 30.9C58.2612 30.6134 58.3304 30.3082 58.3332 30C58.3304 29.6918 58.2612 29.3867 58.129 29.1C58.129 28.975 57.9832 28.9 57.9248 28.775C57.8482 28.6447 57.7605 28.5193 57.6623 28.4L43.079 13.4C42.8048 13.1178 42.4614 12.8908 42.0732 12.7353C41.685 12.5797 41.2617 12.4994 40.8332 12.5C40.1517 12.4989 39.4912 12.7023 38.9665 13.075C38.6712 13.2849 38.427 13.5426 38.2481 13.8335C38.0691 14.1244 37.9589 14.4426 37.9237 14.7701C37.8885 15.0975 37.929 15.4277 38.0428 15.7417C38.1567 16.0557 38.3417 16.3474 38.5873 16.6L49.1748 27.5H14.5832C13.8096 27.5 13.0678 27.7634 12.5208 28.2322C11.9738 28.7011 11.6665 29.337 11.6665 30C11.6665 30.663 11.9738 31.2989 12.5208 31.7678C13.0678 32.2366 13.8096 32.5 14.5832 32.5Z" fill="#EC9131"/>
</svg>
