<svg width="115" height="100" viewBox="0 0 115 100" fill="none" xmlns="http://www.w3.org/2000/svg">
<path d="M84.1416 87.5001C83.3753 87.5028 82.6195 87.3456 81.9375 87.0418L57.5 75.9168L33.0625 87.0418C32.2689 87.4046 31.3742 87.5666 30.4801 87.5093C29.586 87.452 28.7283 87.1777 28.0045 86.7176C27.2807 86.2575 26.7199 85.6301 26.3858 84.9066C26.0517 84.1832 25.9577 83.3927 26.1145 82.6251L30.9062 59.1668L11.1645 42.5001C10.5486 41.9657 10.1117 41.2954 9.90064 40.5614C9.68959 39.8273 9.71241 39.0571 9.96663 38.3335C10.2444 37.593 10.7552 36.9349 11.4413 36.4341C12.1273 35.9333 12.961 35.6098 13.8479 35.5001L41.1604 32.0418L53.1875 10.6668C53.5798 9.96234 54.1925 9.36823 54.9552 8.95253C55.7179 8.53683 56.5998 8.31635 57.5 8.31635C58.4001 8.31635 59.2821 8.53683 60.0448 8.95253C60.8075 9.36823 61.4201 9.96234 61.8125 10.6668L73.9833 32.0001L101.296 35.4585C102.183 35.5681 103.016 35.8917 103.702 36.3925C104.388 36.8933 104.899 37.5513 105.177 38.2918C105.431 39.0154 105.454 39.7856 105.243 40.5197C105.032 41.2538 104.595 41.924 103.979 42.4585L84.2375 59.1251L89.0291 82.5835C89.2002 83.3646 89.1106 84.172 88.771 84.9104C88.4314 85.6487 87.8559 86.2871 87.1125 86.7501C86.2448 87.2789 85.2 87.5426 84.1416 87.5001ZM57.5 67.0835C58.2681 67.0666 59.0279 67.2246 59.7041 67.5418L77.7687 75.8751L74.3187 58.3335C74.1849 57.6637 74.2415 56.9756 74.4837 56.3292C74.7259 55.6828 75.1463 55.0978 75.7083 54.6251L90.0833 42.4168L69.9583 39.8335C69.2203 39.7043 68.5277 39.4257 67.9366 39.0203C67.3456 38.6149 66.8726 38.0941 66.5562 37.5001L57.5 21.8751L48.4437 37.5001C48.097 38.0989 47.5893 38.6161 46.9637 39.0078C46.338 39.3995 45.6129 39.6542 44.85 39.7501L24.725 42.3335L39.1 54.5418C39.6619 55.0145 40.0823 55.5995 40.3245 56.2459C40.5668 56.8922 40.6234 57.5803 40.4895 58.2501L37.0395 75.5835L55.1041 67.2501C55.8696 67.0027 56.699 66.945 57.5 67.0835Z" fill="#EC9131"/>
</svg>
