<svg width="41" height="41" viewBox="0 0 41 41" fill="none" xmlns="http://www.w3.org/2000/svg">
<circle cx="20.5" cy="20.5" r="20" fill="#EC9131"/>
<path d="M26.3333 11.4917C26.3333 11.348 26.2719 11.2102 26.1625 11.1087C26.0531 11.0071 25.9047 10.95 25.75 10.95H22.8333C21.3646 10.8821 19.9267 11.3567 18.8337 12.2701C17.7407 13.1836 17.0814 14.4616 17 15.825V18.75H14.0833C13.9286 18.75 13.7803 18.8071 13.6709 18.9087C13.5615 19.0102 13.5 19.148 13.5 19.2917V22.1083C13.5 22.252 13.5615 22.3898 13.6709 22.4914C13.7803 22.5929 13.9286 22.65 14.0833 22.65H17V29.9083C17 30.052 17.0615 30.1898 17.1709 30.2914C17.2803 30.3929 17.4286 30.45 17.5833 30.45H21.0833C21.238 30.45 21.3864 30.3929 21.4958 30.2914C21.6052 30.1898 21.6667 30.052 21.6667 29.9083V22.65H24.7233C24.8531 22.6517 24.9797 22.6133 25.0832 22.5407C25.1868 22.4681 25.2613 22.3655 25.295 22.2492L26.135 19.4325C26.1582 19.3525 26.1613 19.2686 26.1441 19.1872C26.1269 19.1059 26.0898 19.0293 26.0357 18.9634C25.9816 18.8975 25.912 18.8439 25.8321 18.8069C25.7522 18.77 25.6643 18.7505 25.575 18.75H21.6667V15.825C21.6957 15.5569 21.8313 15.3084 22.047 15.1281C22.2628 14.9478 22.5431 14.8487 22.8333 14.85H25.75C25.9047 14.85 26.0531 14.7929 26.1625 14.6914C26.2719 14.5898 26.3333 14.452 26.3333 14.3083V11.4917Z" fill="white"/>
</svg>
