<svg width="96" height="80" viewBox="0 0 96 80" fill="none" xmlns="http://www.w3.org/2000/svg">
<path d="M74.3841 79.1838C73.6178 79.1865 72.8619 79.0293 72.1799 78.7255L47.7424 67.6005L23.3049 78.7255C22.5114 79.0883 21.6167 79.2503 20.7226 79.193C19.8284 79.1357 18.9707 78.8614 18.2469 78.4013C17.5232 77.9412 16.9624 77.3138 16.6283 76.5903C16.2942 75.8668 16.2002 75.0764 16.357 74.3088L21.1486 50.8505L1.40698 34.1838C0.791044 33.6493 0.354111 32.9791 0.143067 32.245C-0.0679761 31.511 -0.0451627 30.7408 0.209059 30.0171C0.486784 29.2766 0.997654 28.6186 1.6837 28.1178C2.36974 27.617 3.20348 27.2934 4.09031 27.1838L31.4028 23.7255L43.4299 2.35046C43.8223 1.646 44.4349 1.05188 45.1976 0.636182C45.9603 0.22048 46.8422 0 47.7424 0C48.6425 0 49.5245 0.22048 50.2872 0.636182C51.0499 1.05188 51.6625 1.646 52.0549 2.35046L64.2257 23.6838L91.5382 27.1421C92.4251 27.2517 93.2588 27.5753 93.9449 28.0761C94.6309 28.5769 95.1418 29.2349 95.4195 29.9755C95.6737 30.6991 95.6965 31.4693 95.4855 32.2034C95.2744 32.9374 94.8375 33.6076 94.2216 34.1421L74.4799 50.8088L79.2716 74.2671C79.4426 75.0483 79.3531 75.8557 79.0134 76.594C78.6738 77.3323 78.0983 77.9707 77.3549 78.4338C76.4872 78.9625 75.4425 79.2263 74.3841 79.1838ZM47.7424 58.7671C48.5105 58.7503 49.2703 58.9083 49.9466 59.2255L68.0111 67.5588L64.5611 50.0171C64.4273 49.3473 64.4839 48.6592 64.7262 48.0129C64.9684 47.3665 65.3888 46.7814 65.9507 46.3088L80.3257 34.1005L60.2007 31.5171C59.4627 31.3879 58.7701 31.1093 58.1791 30.7039C57.588 30.2986 57.1151 29.7778 56.7986 29.1838L47.7424 13.5588L38.6861 29.1838C38.3395 29.7826 37.8317 30.2998 37.2061 30.6915C36.5805 31.0832 35.8554 31.3378 35.0924 31.4338L14.9674 34.0171L29.3424 46.2255C29.9043 46.6981 30.3248 47.2831 30.567 47.9295C30.8092 48.5759 30.8658 49.264 30.732 49.9338L27.282 67.2671L45.3466 58.9338C46.112 58.6863 46.9414 58.6287 47.7424 58.7671Z" fill="#EC9131"/>
<path d="M47.5 13V59" stroke="#EC9131"/>
<path d="M42 14V60" stroke="#EC9131" stroke-width="10"/>
<path d="M42.1659 29.309L27.9511 73.0576" stroke="#EC9131" stroke-width="10"/>
<path d="M37.0048 38.1594L26 28.7604" stroke="#EC9131" stroke-width="10"/>
<path d="M34.2643 48.0678L13.9999 30.7604" stroke="#EC9131" stroke-width="10"/>
<path d="M44.2643 65.0678L23.9999 47.7604" stroke="#EC9131" stroke-width="10"/>
</svg>
