<svg xmlns="http://www.w3.org/2000/svg" version="1.1" xmlns:xlink="http://www.w3.org/1999/xlink" xmlns:svgjs="http://svgjs.dev/svgjs" width="128" height="128" viewBox="0 0 128 128"><g transform="matrix(0.8046875,0,0,0.8046875,12.458582558431772,6.279246471774194)"><svg viewBox="0 0 138 155" data-background-color="#ffffff" preserveAspectRatio="xMidYMid meet" height="143" width="128" xmlns="http://www.w3.org/2000/svg" xmlns:xlink="http://www.w3.org/1999/xlink"><g id="tight-bounds" transform="matrix(1,0,0,1,0.05549132947976432,0.25)"><svg viewBox="0 0 137.88901734104047 154.5" height="154.5" width="137.88901734104047"><g><svg viewBox="0 0 137.88901734104047 154.5" height="154.5" width="137.88901734104047"><g><svg viewBox="0 0 137.88901734104047 154.5" height="154.5" width="137.88901734104047"><g id="textblocktransform"><svg viewBox="0 0 137.88901734104047 154.5" height="154.5" width="137.88901734104047" id="textblock"><g><svg viewBox="0 0 137.88901734104047 154.5" height="154.5" width="137.88901734104047"><g transform="matrix(1,0,0,1,0,0)"><svg width="137.88901734104047" viewBox="2.25 -43 38.6 43.25" height="154.5" data-palette-color="#ec9131"><path d="M15.4 0.25Q12.5 0.25 8.85-0.25L8.85-0.25Q6.85-0.5 6.1-1.3 5.35-2.1 5.45-3.9L5.45-3.9Q5.8-8.85 7.1-16.13 8.4-23.4 10.25-30.15L10.25-30.15Q10.6-31.4 11.65-31.9 12.7-32.4 14.4-32.4L14.4-32.4Q17.45-32.4 17.45-30.7L17.45-30.7Q17.45-30 17.15-29.1L17.15-29.1Q15.85-25.1 14.55-18.38 13.25-11.65 12.7-5.55L12.7-5.55Q14.2-5.4 16.1-5.4L16.1-5.4Q24.85-5.4 29.18-10.7 33.5-16 33.5-24.85L33.5-24.85Q33.5-30.8 30.1-34.05 26.7-37.3 20.5-37.3L20.5-37.3Q16.5-37.3 12.58-36.05 8.65-34.8 5.5-32.75L5.5-32.75Q4.85-32.3 4.1-32.3L4.1-32.3Q3.25-32.3 2.75-33.02 2.25-33.75 2.25-34.8L2.25-34.8Q2.25-36 2.65-36.77 3.05-37.55 4-38.2L4-38.2Q7.45-40.55 12.1-41.78 16.75-43 21.05-43L21.05-43Q27.15-43 31.6-40.88 36.05-38.75 38.45-34.65 40.85-30.55 40.85-24.75L40.85-24.75Q40.85-17.2 37.85-11.58 34.85-5.95 29.1-2.85 23.35 0.25 15.4 0.25L15.4 0.25Z" opacity="1" transform="matrix(1,0,0,1,0,0)" fill="#ec9131" class="undefined-text-0" data-fill-palette-color="primary" id="text-0"></path></svg></g></svg></g></svg></g></svg></g></svg></g><defs></defs></svg><rect width="137.88901734104047" height="154.5" fill="none" stroke="none" visibility="hidden"></rect></g></svg></g></svg>