<svg width="52" height="52" viewBox="0 0 52 52" fill="none" xmlns="http://www.w3.org/2000/svg">
<path d="M41.0605 23.7718H28.094V10.8054C28.094 10.2322 27.8663 9.68253 27.461 9.27725C27.0557 8.87197 26.5061 8.64429 25.9329 8.64429C25.3598 8.64429 24.8101 8.87197 24.4048 9.27725C23.9995 9.68253 23.7718 10.2322 23.7718 10.8054V23.7718H10.8054C10.2322 23.7718 9.68253 23.9995 9.27725 24.4048C8.87197 24.8101 8.64429 25.3598 8.64429 25.9329C8.64429 26.5061 8.87197 27.0557 9.27725 27.461C9.68253 27.8663 10.2322 28.094 10.8054 28.094H23.7718V41.0605C23.7718 41.6336 23.9995 42.1833 24.4048 42.5886C24.8101 42.9939 25.3598 43.2215 25.9329 43.2215C26.5061 43.2215 27.0557 42.9939 27.461 42.5886C27.8663 42.1833 28.094 41.6336 28.094 41.0605V28.094H41.0605C41.6336 28.094 42.1833 27.8663 42.5886 27.461C42.9939 27.0557 43.2215 26.5061 43.2215 25.9329C43.2215 25.3598 42.9939 24.8101 42.5886 24.4048C42.1833 23.9995 41.6336 23.7718 41.0605 23.7718Z" fill="black"/>
</svg>
