<svg width="74" height="74" viewBox="0 0 74 74" fill="none" xmlns="http://www.w3.org/2000/svg">
<path d="M52.1456 64.4152C51.525 64.4118 50.9183 64.2309 50.3972 63.8938L30.6739 50.3973H15.3369C14.5234 50.3973 13.7432 50.0741 13.1679 49.4988C12.5927 48.9236 12.2695 48.1434 12.2695 47.3299V26.2876C12.2695 25.4741 12.5927 24.6939 13.1679 24.1186C13.7432 23.5434 14.5234 23.2202 15.3369 23.2202H30.6739L50.3358 9.72368C50.7979 9.38579 51.3453 9.18395 51.9161 9.14098C52.4869 9.09801 53.0584 9.21562 53.5658 9.48052C54.0733 9.74542 54.4965 10.147 54.7876 10.6399C55.0787 11.1328 55.226 11.6973 55.213 12.2696V61.3478C55.213 62.1614 54.8898 62.9416 54.3146 63.5168C53.7393 64.0921 52.9591 64.4152 52.1456 64.4152Z" fill="#231F20"/>
</svg>
