<svg width="74" height="74" viewBox="0 0 74 74" fill="none" xmlns="http://www.w3.org/2000/svg">
<path d="M36.8087 6.13477C30.742 6.13477 24.8115 7.93376 19.7672 11.3042C14.7229 14.6747 10.7913 19.4653 8.46969 25.0703C6.14806 30.6752 5.54061 36.8427 6.72417 42.7928C7.90773 48.743 10.8291 54.2086 15.119 58.4984C19.4088 62.7882 24.8743 65.7096 30.8245 66.8932C36.7747 68.0767 42.9422 67.4693 48.5471 65.1477C54.152 62.826 58.9426 58.8945 62.3131 53.8502C65.6836 48.8059 67.4826 42.8754 67.4826 36.8087C67.4826 32.7805 66.6892 28.7918 65.1477 25.0703C63.6062 21.3487 61.3467 17.9673 58.4984 15.1189C55.6501 12.2706 52.2686 10.0112 48.5471 8.46968C44.8255 6.92817 40.8368 6.13477 36.8087 6.13477ZM36.8087 52.1456C36.202 52.1456 35.609 51.9657 35.1045 51.6287C34.6001 51.2916 34.2069 50.8126 33.9748 50.2521C33.7426 49.6916 33.6819 49.0748 33.8002 48.4798C33.9186 47.8848 34.2107 47.3382 34.6397 46.9093C35.0687 46.4803 35.6152 46.1881 36.2103 46.0698C36.8053 45.9514 37.422 46.0122 37.9825 46.2443C38.543 46.4765 39.0221 46.8696 39.3591 47.3741C39.6962 47.8785 39.8761 48.4716 39.8761 49.0782C39.8761 49.8917 39.5529 50.672 38.9776 51.2472C38.4024 51.8224 37.6222 52.1456 36.8087 52.1456ZM39.8761 39.8761C39.8761 40.6896 39.5529 41.4698 38.9776 42.045C38.4024 42.6203 37.6222 42.9434 36.8087 42.9434C35.9952 42.9434 35.215 42.6203 34.6397 42.045C34.0645 41.4698 33.7413 40.6896 33.7413 39.8761V24.5391C33.7413 23.7256 34.0645 22.9454 34.6397 22.3701C35.215 21.7949 35.9952 21.4717 36.8087 21.4717C37.6222 21.4717 38.4024 21.7949 38.9776 22.3701C39.5529 22.9454 39.8761 23.7256 39.8761 24.5391V39.8761Z" fill="#EC9131"/>
</svg>
