<svg width="73" height="73" viewBox="0 0 73 73" fill="none" xmlns="http://www.w3.org/2000/svg">
<path d="M54.486 12.108H51.459V9.08095C51.459 8.27814 51.1401 7.50821 50.5724 6.94054C50.0047 6.37287 49.2348 6.05396 48.432 6.05396C47.6292 6.05396 46.8592 6.37287 46.2916 6.94054C45.7239 7.50821 45.405 8.27814 45.405 9.08095V12.108H27.243V9.08095C27.243 8.27814 26.9241 7.50821 26.3564 6.94054C25.7887 6.37287 25.0188 6.05396 24.216 6.05396C23.4132 6.05396 22.6432 6.37287 22.0756 6.94054C21.5079 7.50821 21.189 8.27814 21.189 9.08095V12.108H18.162C15.7536 12.108 13.4438 13.0647 11.7408 14.7677C10.0377 16.4707 9.08099 18.7805 9.08099 21.1889V57.5129C9.08099 59.9214 10.0377 62.2311 11.7408 63.9342C13.4438 65.6372 15.7536 66.5939 18.162 66.5939H54.486C56.8944 66.5939 59.2042 65.6372 60.9072 63.9342C62.6102 62.2311 63.567 59.9214 63.567 57.5129V21.1889C63.567 18.7805 62.6102 16.4707 60.9072 14.7677C59.2042 13.0647 56.8944 12.108 54.486 12.108ZM18.162 18.1619H21.189V21.1889C21.189 21.9918 21.5079 22.7617 22.0756 23.3294C22.6432 23.897 23.4132 24.2159 24.216 24.2159C25.0188 24.2159 25.7887 23.897 26.3564 23.3294C26.9241 22.7617 27.243 21.9918 27.243 21.1889V18.1619H45.405V21.1889C45.405 21.9918 45.7239 22.7617 46.2916 23.3294C46.8592 23.897 47.6292 24.2159 48.432 24.2159C49.2348 24.2159 50.0047 23.897 50.5724 23.3294C51.1401 22.7617 51.459 21.9918 51.459 21.1889V18.1619H54.486C55.2888 18.1619 56.0587 18.4809 56.6264 19.0485C57.1941 19.6162 57.513 20.3861 57.513 21.1889V33.2969H15.135V21.1889C15.135 20.3861 15.4539 19.6162 16.0216 19.0485C16.5893 18.4809 17.3592 18.1619 18.162 18.1619ZM54.486 60.5399H18.162C17.3592 60.5399 16.5893 60.221 16.0216 59.6533C15.4539 59.0857 15.135 58.3157 15.135 57.5129V39.3509H57.513V57.5129C57.513 58.3157 57.1941 59.0857 56.6264 59.6533C56.0587 60.221 55.2888 60.5399 54.486 60.5399Z" fill="white"/>
<path d="M24.216 51.459C25.8877 51.459 27.243 50.1038 27.243 48.432C27.243 46.7603 25.8877 45.405 24.216 45.405C22.5442 45.405 21.189 46.7603 21.189 48.432C21.189 50.1038 22.5442 51.459 24.216 51.459Z" fill="white"/>
<path d="M48.432 45.405H36.324C35.5212 45.405 34.7513 45.7239 34.1836 46.2916C33.6159 46.8593 33.297 47.6292 33.297 48.432C33.297 49.2348 33.6159 50.0048 34.1836 50.5724C34.7513 51.1401 35.5212 51.459 36.324 51.459H48.432C49.2348 51.459 50.0047 51.1401 50.5724 50.5724C51.1401 50.0048 51.459 49.2348 51.459 48.432C51.459 47.6292 51.1401 46.8593 50.5724 46.2916C50.0047 45.7239 49.2348 45.405 48.432 45.405Z" fill="white"/>
</svg>
