<svg width="57" height="57" viewBox="0 0 57 57" fill="none" xmlns="http://www.w3.org/2000/svg">
<path d="M31.5161 28.2023L41.6219 18.12C42.0644 17.6774 42.313 17.0772 42.313 16.4514C42.313 15.8255 42.0644 15.2253 41.6219 14.7827C41.1793 14.3402 40.5791 14.0916 39.9532 14.0916C39.3274 14.0916 38.7272 14.3402 38.2846 14.7827L28.2023 24.8885L18.12 14.7827C17.6774 14.3402 17.0772 14.0916 16.4513 14.0916C15.8255 14.0916 15.2253 14.3402 14.7827 14.7827C14.3402 15.2253 14.0915 15.8255 14.0915 16.4514C14.0915 17.0772 14.3402 17.6774 14.7827 18.12L24.8885 28.2023L14.7827 38.2846C14.5624 38.5031 14.3876 38.763 14.2683 39.0494C14.149 39.3358 14.0875 39.643 14.0875 39.9533C14.0875 40.2635 14.149 40.5707 14.2683 40.8571C14.3876 41.1435 14.5624 41.4034 14.7827 41.6219C15.0012 41.8422 15.2611 42.017 15.5475 42.1363C15.8339 42.2556 16.1411 42.3171 16.4513 42.3171C16.7616 42.3171 17.0688 42.2556 17.3552 42.1363C17.6416 42.017 17.9015 41.8422 18.12 41.6219L28.2023 31.5161L38.2846 41.6219C38.5031 41.8422 38.763 42.017 39.0494 42.1363C39.3358 42.2556 39.643 42.3171 39.9532 42.3171C40.2635 42.3171 40.5707 42.2556 40.8571 42.1363C41.1435 42.017 41.4034 41.8422 41.6219 41.6219C41.8421 41.4034 42.017 41.1435 42.1363 40.8571C42.2556 40.5707 42.3171 40.2635 42.3171 39.9533C42.3171 39.643 42.2556 39.3358 42.1363 39.0494C42.017 38.763 41.8421 38.5031 41.6219 38.2846L31.5161 28.2023Z" fill="black"/>
</svg>
