<svg width="74" height="74" viewBox="0 0 74 74" fill="none" xmlns="http://www.w3.org/2000/svg">
<path d="M58.2804 15.3369H15.3369C12.8964 15.3369 10.5558 16.3064 8.83002 18.0322C7.10428 19.7579 6.13477 22.0985 6.13477 24.5391V49.0782C6.13477 51.5188 7.10428 53.8594 8.83002 55.5851C10.5558 57.3109 12.8964 58.2804 15.3369 58.2804H58.2804C60.721 58.2804 63.0616 57.3109 64.7873 55.5851C66.5131 53.8594 67.4826 51.5188 67.4826 49.0782V24.5391C67.4826 22.0985 66.5131 19.7579 64.7873 18.0322C63.0616 16.3064 60.721 15.3369 58.2804 15.3369ZM12.2695 24.5391C12.2695 23.7256 12.5927 22.9454 13.168 22.3701C13.7432 21.7949 14.5234 21.4717 15.3369 21.4717H58.2804C59.0939 21.4717 59.8741 21.7949 60.4494 22.3701C61.0246 22.9454 61.3478 23.7256 61.3478 24.5391V27.6065H12.2695V24.5391ZM61.3478 49.0782C61.3478 49.8917 61.0246 50.6719 60.4494 51.2472C59.8741 51.8224 59.0939 52.1456 58.2804 52.1456H15.3369C14.5234 52.1456 13.7432 51.8224 13.168 51.2472C12.5927 50.6719 12.2695 49.8917 12.2695 49.0782V33.7413H61.3478V49.0782Z" fill="#EC9131"/>
<path d="M21.4717 46.0109H33.7412C34.5548 46.0109 35.335 45.6877 35.9102 45.1125C36.4855 44.5372 36.8086 43.757 36.8086 42.9435C36.8086 42.13 36.4855 41.3498 35.9102 40.7745C35.335 40.1993 34.5548 39.8761 33.7412 39.8761H21.4717C20.6582 39.8761 19.878 40.1993 19.3027 40.7745C18.7275 41.3498 18.4043 42.13 18.4043 42.9435C18.4043 43.757 18.7275 44.5372 19.3027 45.1125C19.878 45.6877 20.6582 46.0109 21.4717 46.0109Z" fill="#EC9131"/>
<path d="M46.0109 46.0109H52.1457C52.9592 46.0109 53.7394 45.6877 54.3146 45.1125C54.8899 44.5372 55.213 43.757 55.213 42.9435C55.213 42.13 54.8899 41.3498 54.3146 40.7745C53.7394 40.1993 52.9592 39.8761 52.1457 39.8761H46.0109C45.1973 39.8761 44.4171 40.1993 43.8419 40.7745C43.2667 41.3498 42.9435 42.13 42.9435 42.9435C42.9435 43.757 43.2667 44.5372 43.8419 45.1125C44.4171 45.6877 45.1973 46.0109 46.0109 46.0109Z" fill="#EC9131"/>
</svg>
