<svg width="44" height="44" viewBox="0 0 44 44" fill="none" xmlns="http://www.w3.org/2000/svg">
<ellipse cx="21.5" cy="21.5" rx="11.5" ry="6.5" fill="white"/>
<path d="M21.6081 3.60138C18.0467 3.60138 14.5653 4.65746 11.6041 6.63607C8.64288 8.61469 6.33491 11.427 4.97201 14.7173C3.60912 18.0076 3.25253 21.6282 3.94732 25.1211C4.64212 28.6141 6.3571 31.8226 8.8754 34.3409C11.3937 36.8592 14.6022 38.5742 18.0952 39.269C21.5882 39.9638 25.2087 39.6072 28.499 38.2443C31.7894 36.8814 34.6016 34.5734 36.5802 31.6122C38.5589 28.651 39.6149 25.1696 39.6149 21.6082C39.6149 19.2435 39.1492 16.902 38.2443 14.7173C37.3393 12.5326 36.013 10.5475 34.3409 8.87545C32.6688 7.20337 30.6837 5.87699 28.499 4.97207C26.3144 4.06714 23.9728 3.60138 21.6081 3.60138ZM27.0102 23.4089H16.2061C15.7285 23.4089 15.2705 23.2192 14.9328 22.8815C14.5951 22.5438 14.4054 22.0858 14.4054 21.6082C14.4054 21.1306 14.5951 20.6726 14.9328 20.3349C15.2705 19.9972 15.7285 19.8075 16.2061 19.8075H27.0102C27.4878 19.8075 27.9458 19.9972 28.2835 20.3349C28.6211 20.6726 28.8109 21.1306 28.8109 21.6082C28.8109 22.0858 28.6211 22.5438 28.2835 22.8815C27.9458 23.2192 27.4878 23.4089 27.0102 23.4089Z" fill="#EC9131"/>
</svg>
