<svg width="79" height="79" viewBox="0 0 79 79" fill="none" xmlns="http://www.w3.org/2000/svg">
<path d="M68.5364 19.5817H52.2182V14.1315C52.1416 12.0422 51.2398 10.0684 49.7103 8.64299C48.1809 7.21755 46.1486 6.45669 44.0591 6.5272H34.2682C32.1787 6.45669 30.1464 7.21755 28.617 8.64299C27.0875 10.0684 26.1857 12.0422 26.1091 14.1315V19.5817H9.79092C8.92535 19.5817 8.09523 19.9256 7.48318 20.5376C6.87113 21.1497 6.52728 21.9798 6.52728 22.8454C6.52728 23.711 6.87113 24.5411 7.48318 25.1531C8.09523 25.7652 8.92535 26.109 9.79092 26.109H13.0546V62.009C13.0546 64.6057 14.0861 67.0961 15.9222 68.9322C17.7584 70.7684 20.2488 71.7999 22.8455 71.7999H55.4818C58.0785 71.7999 60.5689 70.7684 62.405 68.9322C64.2412 67.0961 65.2727 64.6057 65.2727 62.009V26.109H68.5364C69.4019 26.109 70.2321 25.7652 70.8441 25.1531C71.4562 24.5411 71.8 23.711 71.8 22.8454C71.8 21.9798 71.4562 21.1497 70.8441 20.5376C70.2321 19.9256 69.4019 19.5817 68.5364 19.5817ZM32.6364 14.1315C32.6364 13.6093 33.3217 13.0545 34.2682 13.0545H44.0591C45.0056 13.0545 45.6909 13.6093 45.6909 14.1315V19.5817H32.6364V14.1315Z" fill="#EB0000"/>
</svg>
