<svg width="24" height="24" viewBox="0 0 24 24" fill="none" xmlns="http://www.w3.org/2000/svg">
<path d="M21.1024 10.9935L18.1864 8.07745C18.0034 7.89442 17.7551 7.79159 17.4963 7.79159C17.2374 7.79159 16.9892 7.89442 16.8061 8.07745C16.6231 8.26049 16.5203 8.50873 16.5203 8.76758C16.5203 9.02643 16.6231 9.27468 16.8061 9.45771L18.06 10.6922H12.6362V5.25861L13.8901 6.52223C13.9809 6.61232 14.0886 6.68359 14.2071 6.73196C14.3255 6.78033 14.4523 6.80485 14.5802 6.80411C14.7081 6.80485 14.835 6.78033 14.9534 6.73196C15.0718 6.68359 15.1795 6.61232 15.2704 6.52223C15.3615 6.43187 15.4338 6.32436 15.4831 6.20591C15.5325 6.08747 15.5579 5.96042 15.5579 5.8321C15.5579 5.70378 15.5325 5.57674 15.4831 5.45829C15.4338 5.33984 15.3615 5.23233 15.2704 5.14197L12.3543 2.22593C12.2635 2.13584 12.1558 2.06457 12.0373 2.0162C11.9189 1.96783 11.7921 1.94331 11.6642 1.94405C11.4092 1.94512 11.1648 2.04636 10.9838 2.22593L8.06773 5.14197C7.9771 5.23196 7.90509 5.33892 7.85579 5.45675C7.8065 5.57457 7.7809 5.70095 7.78045 5.82866C7.78 5.95638 7.8047 6.08294 7.85316 6.20111C7.90162 6.31927 7.97288 6.42674 8.06287 6.51737C8.15286 6.608 8.25982 6.68002 8.37765 6.72931C8.49547 6.7786 8.62185 6.8042 8.74956 6.80465C9.0075 6.80557 9.25524 6.70397 9.43827 6.52223L10.6922 5.26833V10.6922H5.25861L6.52223 9.43827C6.70526 9.25524 6.80809 9.00699 6.80809 8.74814C6.80809 8.48929 6.70526 8.24104 6.52223 8.05801C6.3392 7.87498 6.09095 7.77215 5.8321 7.77215C5.57325 7.77215 5.325 7.87498 5.14197 8.05801L2.22593 10.9741C2.13584 11.0649 2.06457 11.1726 2.0162 11.291C1.96783 11.4094 1.94331 11.5363 1.94405 11.6642C1.94331 11.7921 1.96783 11.9189 2.0162 12.0373C2.06457 12.1558 2.13584 12.2635 2.22593 12.3543L5.14197 15.2704C5.2328 15.3604 5.34051 15.4317 5.45894 15.4801C5.57737 15.5285 5.70418 15.553 5.8321 15.5522C5.96002 15.553 6.08683 15.5285 6.20526 15.4801C6.32369 15.4317 6.4314 15.3604 6.52223 15.2704C6.61334 15.18 6.68565 15.0725 6.735 14.954C6.78434 14.8356 6.80975 14.7085 6.80975 14.5802C6.80975 14.4519 6.78434 14.3249 6.735 14.2064C6.68565 14.088 6.61334 13.9805 6.52223 13.8901L5.26833 12.6362H10.6922V18.0697L9.43827 16.8061C9.34764 16.7155 9.24005 16.6436 9.12164 16.5946C9.00322 16.5455 8.87631 16.5203 8.74814 16.5203C8.61997 16.5203 8.49306 16.5455 8.37464 16.5946C8.25623 16.6436 8.14864 16.7155 8.05801 16.8061C7.96738 16.8968 7.89549 17.0044 7.84644 17.1228C7.79739 17.2412 7.77215 17.3681 7.77215 17.4963C7.77215 17.6244 7.79739 17.7513 7.84644 17.8698C7.89549 17.9882 7.96738 18.0958 8.05801 18.1864L10.9741 21.1024C11.0649 21.1925 11.1726 21.2638 11.291 21.3122C11.4094 21.3605 11.5363 21.3851 11.6642 21.3843C11.9192 21.3832 12.1635 21.282 12.3446 21.1024L15.2606 18.1864C15.4437 18.0034 15.5465 17.7551 15.5465 17.4963C15.5465 17.2374 15.4437 16.9892 15.2606 16.8061C15.0776 16.6231 14.8293 16.5203 14.5705 16.5203C14.3117 16.5203 14.0634 16.6231 13.8804 16.8061L12.6362 18.06V12.6362H18.0697L16.8061 13.8901C16.715 13.9805 16.6427 14.088 16.5934 14.2064C16.544 14.3249 16.5186 14.4519 16.5186 14.5802C16.5186 14.7085 16.544 14.8356 16.5934 14.954C16.6427 15.0725 16.715 15.18 16.8061 15.2704C16.897 15.3604 17.0047 15.4317 17.1231 15.4801C17.2415 15.5285 17.3683 15.553 17.4963 15.5522C17.6242 15.553 17.751 15.5285 17.8694 15.4801C17.9879 15.4317 18.0956 15.3604 18.1864 15.2704L21.1024 12.3543C21.1925 12.2635 21.2638 12.1558 21.3122 12.0373C21.3605 11.9189 21.3851 11.7921 21.3843 11.6642C21.3807 11.4126 21.2797 11.1721 21.1024 10.9935Z" fill="#EC9131"/>
</svg>
