<svg width="73" height="73" viewBox="0 0 73 73" fill="none" xmlns="http://www.w3.org/2000/svg">
<path d="M57.5129 60.54H15.135C14.3322 60.54 13.5622 60.8589 12.9946 61.4266C12.4269 61.9942 12.108 62.7642 12.108 63.567C12.108 64.3698 12.4269 65.1397 12.9946 65.7074C13.5622 66.2751 14.3322 66.594 15.135 66.594H57.5129C58.3158 66.594 59.0857 66.2751 59.6534 65.7074C60.221 65.1397 60.5399 64.3698 60.5399 63.567C60.5399 62.7642 60.221 61.9942 59.6534 61.4266C59.0857 60.8589 58.3158 60.54 57.5129 60.54Z" fill="#EC9131"/>
<path d="M15.1349 54.4859H15.4074L28.0299 53.3356C29.4127 53.1979 30.7059 52.5887 31.6926 51.6102L58.9356 24.3673C59.993 23.2502 60.5644 21.7595 60.5247 20.2219C60.485 18.6843 59.8374 17.2251 58.7237 16.1641L50.4297 7.87012C49.3473 6.85334 47.9288 6.26993 46.4442 6.23086C44.9596 6.19179 43.5124 6.69979 42.3779 7.65823L15.1349 34.9012C14.1565 35.8879 13.5473 37.1812 13.4095 38.5639L12.1079 51.1865C12.0672 51.6298 12.1247 52.0767 12.2764 52.4953C12.4282 52.9139 12.6704 53.2938 12.9858 53.6081C13.2686 53.8886 13.604 54.1106 13.9729 54.2612C14.3417 54.4118 14.7366 54.4882 15.1349 54.4859ZM46.2222 12.1079L54.4859 20.3716L48.4319 26.2743L40.3196 18.1619L46.2222 12.1079ZM19.2819 39.0785L36.3239 22.1576L44.4968 30.3305L27.5456 47.2816L18.4646 48.1292L19.2819 39.0785Z" fill="#EC9131"/>
</svg>
