<svg width="54" height="54" viewBox="0 0 54 54" fill="none" xmlns="http://www.w3.org/2000/svg">
<path d="M41.9916 44.2017H11.0504C10.4643 44.2017 9.90212 44.4345 9.48765 44.849C9.07318 45.2634 8.84033 45.8256 8.84033 46.4117C8.84033 46.9979 9.07318 47.56 9.48765 47.9745C9.90212 48.389 10.4643 48.6218 11.0504 48.6218H41.9916C42.5777 48.6218 43.1399 48.389 43.5544 47.9745C43.9688 47.56 44.2017 46.9979 44.2017 46.4117C44.2017 45.8256 43.9688 45.2634 43.5544 44.849C43.1399 44.4345 42.5777 44.2017 41.9916 44.2017Z" fill="#EC9131"/>
<path d="M11.0504 39.7814H11.2493L20.4654 38.9416C21.4749 38.841 22.4192 38.3962 23.1396 37.6818L43.0303 17.7911C43.8024 16.9755 44.2196 15.8871 44.1906 14.7645C44.1616 13.6418 43.6887 12.5764 42.8756 11.8018L36.82 5.74613C36.0297 5.00375 34.994 4.57779 33.9101 4.54926C32.8261 4.52074 31.7695 4.89164 30.9412 5.59142L11.0504 25.4822C10.3361 26.2026 9.89125 27.1468 9.79068 28.1564L8.84034 37.3724C8.81057 37.6961 8.85257 38.0224 8.96336 38.328C9.07414 38.6336 9.25098 38.9111 9.48127 39.1405C9.68778 39.3453 9.93269 39.5074 10.202 39.6174C10.4712 39.7273 10.7596 39.7831 11.0504 39.7814ZM33.748 8.84024L39.7815 14.8738L35.3614 19.1834L29.4383 13.2604L33.748 8.84024ZM14.0782 28.5321L26.521 16.1777L32.4882 22.1449L20.1118 34.5214L13.4815 35.1402L14.0782 28.5321Z" fill="#EC9131"/>
</svg>
