<svg width="15" height="15" viewBox="0 0 15 15" fill="none" xmlns="http://www.w3.org/2000/svg">
<path d="M7.5 15C7.40131 15.0007 7.30347 14.9784 7.21211 14.9345C7.12074 14.8906 7.03764 14.8259 6.96757 14.7441L1.14085 7.87921C0.409969 7.01022 0 5.837 0 4.61441C0 3.39182 0.409969 2.2186 1.14085 1.34962C1.87745 0.485342 2.87524 0 3.91548 0C4.95572 0 5.95351 0.485342 6.69011 1.34962L7.5 2.30259L8.30989 1.34962C9.04649 0.485342 10.0443 0 11.0845 0C12.1248 0 13.1226 0.485342 13.8591 1.34962C14.59 2.2186 15 3.39182 15 4.61441C15 5.837 14.59 7.01022 13.8591 7.87921L8.03243 14.7441C7.96236 14.8259 7.87926 14.8906 7.78789 14.9345C7.69653 14.9784 7.59869 15.0007 7.5 15Z" fill="#EC9131"/>
</svg>
