<svg width="52" height="46" viewBox="0 0 52 46" fill="none" xmlns="http://www.w3.org/2000/svg">
<path d="M25.6522 45.6521C25.3146 45.6542 24.98 45.5864 24.6675 45.4528C24.355 45.3191 24.0708 45.1222 23.8311 44.8733L3.90204 23.9802C1.40221 21.3355 0 17.7648 0 14.0439C0 10.3229 1.40221 6.75228 3.90204 4.10754C6.42142 1.47713 9.83416 0 13.3921 0C16.95 0 20.3627 1.47713 22.8821 4.10754L25.6522 7.00787L28.4222 4.10754C30.9416 1.47713 34.3544 0 37.9123 0C41.4702 0 44.8829 1.47713 47.4023 4.10754C49.9021 6.75228 51.3044 10.3229 51.3044 14.0439C51.3044 17.7648 49.9021 21.3355 47.4023 23.9802L27.4732 44.8733C27.2336 45.1222 26.9493 45.3191 26.6368 45.4528C26.3243 45.5864 25.9897 45.6542 25.6522 45.6521Z" fill="black"/>
</svg>
