<svg width="79" height="79" viewBox="0 0 79 79" fill="none" xmlns="http://www.w3.org/2000/svg">
<path d="M45.3646 71.8C44.6584 71.8 43.9713 71.571 43.4064 71.1473L30.3518 61.1932C29.9525 60.8858 29.6298 60.4901 29.4089 60.0372C29.1881 59.5842 29.0752 59.0862 29.079 58.5823V47.9102L13.4136 17.8195C13.1556 17.3215 13.0303 16.7654 13.0497 16.2049C13.0692 15.6444 13.2328 15.0984 13.5247 14.6195C13.8166 14.1406 14.227 13.745 14.7163 13.4709C15.2057 13.1968 15.7573 13.0534 16.3182 13.0546H62.0091C62.5755 13.0547 63.1321 13.2022 63.6242 13.4826C64.1163 13.7629 64.527 14.1666 64.8158 14.6538C65.1023 15.1499 65.2531 15.7127 65.2531 16.2856C65.2531 16.8585 65.1023 17.4213 64.8158 17.9174L48.4976 47.9755V68.5364C48.5019 69.1446 48.3361 69.7419 48.0189 70.2609C47.7017 70.7799 47.2458 71.2 46.7026 71.4737C46.2849 71.6764 45.8287 71.7877 45.3646 71.8Z" fill="#EC9131"/>
</svg>
