<svg width="115" height="100" viewBox="0 0 115 100" fill="none" xmlns="http://www.w3.org/2000/svg">
<path d="M84.1416 87.5001C83.3753 87.5028 82.6195 87.3456 81.9375 87.0418L57.5 75.9168L33.0625 87.0418C32.2689 87.4046 31.3742 87.5666 30.4801 87.5093C29.586 87.452 28.7283 87.1777 28.0045 86.7176C27.2807 86.2575 26.7199 85.6301 26.3858 84.9066C26.0517 84.1832 25.9577 83.3927 26.1145 82.6251L30.9062 59.1668L11.1645 42.5001C10.5486 41.9657 10.1117 41.2954 9.90064 40.5614C9.68959 39.8273 9.71241 39.0571 9.96663 38.3335C10.2444 37.593 10.7552 36.9349 11.4413 36.4341C12.1273 35.9333 12.961 35.6098 13.8479 35.5001L41.1604 32.0418L53.1875 10.6668C53.5798 9.96234 54.1925 9.36823 54.9552 8.95253C55.7179 8.53683 56.5998 8.31635 57.5 8.31635C58.4001 8.31635 59.2821 8.53683 60.0448 8.95253C60.8075 9.36823 61.4201 9.96234 61.8125 10.6668L73.9833 32.0001L101.296 35.4585C102.183 35.5681 103.016 35.8917 103.702 36.3925C104.388 36.8933 104.899 37.5513 105.177 38.2918C105.431 39.0154 105.454 39.7856 105.243 40.5197C105.032 41.2538 104.595 41.924 103.979 42.4585L84.2375 59.1251L89.0291 82.5835C89.2002 83.3646 89.1106 84.172 88.771 84.9104C88.4314 85.6487 87.8559 86.2871 87.1125 86.7501C86.2448 87.2789 85.2 87.5426 84.1416 87.5001Z" fill="#EC9131"/>
</svg>
