<svg width="54" height="54" viewBox="0 0 54 54" fill="none" xmlns="http://www.w3.org/2000/svg">
<path d="M26 13H15.5C15.1022 13 14.5455 13 14 13C14 13.5 14 14.4696 14 15C14 15.5304 14 16.5 14 17C14.5455 17 15.1022 17 15.5 17H24.5C24.8978 17 25.4545 17 26 17C26 16.5 26 15.5304 26 15C26 14.4696 26 14 26 13.5C26 13 26 13.5 26 13Z" fill="#EC9131"/>
<path d="M44.415 18.7425L32.175 5.24248C31.9646 5.00939 31.7078 4.82292 31.4211 4.69504C31.1343 4.56717 30.824 4.50072 30.51 4.49998H14.76C14.0124 4.49106 13.2704 4.62949 12.5764 4.90735C11.8823 5.18522 11.2498 5.59708 10.7149 6.11942C10.18 6.64176 9.75329 7.26435 9.45904 7.95163C9.16479 8.6389 9.00881 9.37741 9 10.125V43.875C9.00881 44.6225 9.16479 45.361 9.45904 46.0483C9.75329 46.7356 10.18 47.3582 10.7149 47.8805C11.2498 48.4029 11.8823 48.8147 12.5764 49.0926C13.2704 49.3705 14.0124 49.5089 14.76 49.5H39.24C39.9876 49.5089 40.7296 49.3705 41.4236 49.0926C42.1177 48.8147 42.7502 48.4029 43.2851 47.8805C43.82 47.3582 44.2467 46.7356 44.541 46.0483C44.8352 45.361 44.9912 44.6225 45 43.875V20.25C44.9985 19.6923 44.7901 19.1551 44.415 18.7425ZM31.5 11.25L37.665 18H33.165C32.9294 17.9858 32.699 17.9247 32.4872 17.8205C32.2754 17.7163 32.0865 17.5709 31.9315 17.3928C31.7765 17.2148 31.6585 17.0077 31.5844 16.7836C31.5103 16.5594 31.4816 16.3228 31.5 16.0875V11.25ZM39.24 45H14.76C14.6033 45.0091 14.4464 44.9872 14.2982 44.9356C14.1501 44.8839 14.0135 44.8035 13.8965 44.699C13.7794 44.5945 13.6841 44.4679 13.6161 44.3265C13.5481 44.1851 13.5086 44.0317 13.5 43.875V10.125C13.5086 9.96829 13.5481 9.81485 13.6161 9.67344C13.6841 9.53203 13.7794 9.40545 13.8965 9.30093C14.0135 9.19642 14.1501 9.11604 14.2982 9.06439C14.4464 9.01275 14.6033 8.99086 14.76 8.99998H27V16.0875C26.9637 17.7449 27.5844 19.3494 28.7268 20.5507C29.8692 21.7521 31.4404 22.4528 33.0975 22.5H40.5V43.875C40.4914 44.0317 40.4519 44.1851 40.3839 44.3265C40.3159 44.4679 40.2206 44.5945 40.1035 44.699C39.9865 44.8035 39.8499 44.8839 39.7018 44.9356C39.5536 44.9872 39.3967 45.0091 39.24 45Z" fill="#EC9131"/>
</svg>
