<svg width="78" height="78" viewBox="0 0 78 78" fill="none" xmlns="http://www.w3.org/2000/svg">
<path d="M22.6199 19.3885C23.4769 19.3885 24.2988 19.048 24.9049 18.442C25.5109 17.836 25.8513 17.0141 25.8513 16.1571C25.8513 15.3 25.5109 14.4781 24.9049 13.8721C24.2988 13.2661 23.4769 12.9257 22.6199 12.9257H16.1571C15.3 12.9257 14.4781 13.2661 13.8721 13.8721C13.2661 14.4781 12.9257 15.3 12.9257 16.1571V61.3969C12.9257 62.2539 13.2661 63.0758 13.8721 63.6818C14.4781 64.2878 15.3 64.6283 16.1571 64.6283H22.6199C23.4769 64.6283 24.2988 64.2878 24.9049 63.6818C25.5109 63.0758 25.8513 62.2539 25.8513 61.3969C25.8513 60.5398 25.5109 59.7179 24.9049 59.1119C24.2988 58.5059 23.4769 58.1654 22.6199 58.1654H19.3885V19.3885H22.6199Z" fill="black"/>
<path d="M67.278 36.9028L58.1655 23.9771C57.6713 23.2805 56.9213 22.8078 56.0797 22.6625C55.238 22.5172 54.373 22.711 53.6738 23.2016C53.3243 23.4465 53.0268 23.7582 52.7984 24.1187C52.57 24.4792 52.4153 24.8813 52.3432 25.302C52.2711 25.7226 52.2831 26.1533 52.3783 26.5693C52.4736 26.9853 52.6503 27.3782 52.8983 27.7256L58.4563 35.5456H58.1655H32.3141C31.4571 35.5456 30.6352 35.886 30.0292 36.492C29.4232 37.0981 29.0827 37.92 29.0827 38.777C29.0827 39.634 29.4232 40.4559 30.0292 41.062C30.6352 41.668 31.4571 42.0084 32.3141 42.0084H58.1655L52.3489 49.7638C52.0943 50.1033 51.909 50.4896 51.8037 50.9007C51.6984 51.3118 51.6751 51.7396 51.7351 52.1596C51.7951 52.5797 51.9373 52.9839 52.1535 53.349C52.3697 53.7142 52.6557 54.0332 52.9952 54.2878C53.5545 54.7073 54.2349 54.9341 54.934 54.9341C55.4357 54.9341 55.9305 54.8173 56.3792 54.5929C56.8279 54.3686 57.2182 54.0428 57.5192 53.6415L67.2134 40.7158C67.6273 40.1693 67.8566 39.5053 67.8682 38.8199C67.8798 38.1344 67.6731 37.463 67.278 36.9028Z" fill="black"/>
</svg>
