<svg width="15" height="15" viewBox="0 0 15 15" fill="none" xmlns="http://www.w3.org/2000/svg">
<path d="M14.2667 3.09167L11.9083 0.733333C11.4399 0.264358 10.8045 0.000583507 10.1417 0H4.85833C4.19552 0.000583507 3.56006 0.264358 3.09167 0.733333L0.733333 3.09167C0.264358 3.56006 0.000583507 4.19552 0 4.85833V12.5C0 13.163 0.263392 13.7989 0.732233 14.2678C1.20107 14.7366 1.83696 15 2.5 15H12.5C13.163 15 13.7989 14.7366 14.2678 14.2678C14.7366 13.7989 15 13.163 15 12.5V4.85833C14.9994 4.19552 14.7356 3.56006 14.2667 3.09167ZM4.26667 1.90833C4.42636 1.75606 4.63769 1.66974 4.85833 1.66667H10.1417C10.3623 1.66974 10.5736 1.75606 10.7333 1.90833L12.1583 3.33333H2.84167L4.26667 1.90833ZM12.5 13.3333H2.5C2.27899 13.3333 2.06702 13.2455 1.91074 13.0893C1.75446 12.933 1.66667 12.721 1.66667 12.5V5H13.3333V12.5C13.3333 12.721 13.2455 12.933 13.0893 13.0893C12.933 13.2455 12.721 13.3333 12.5 13.3333Z" fill="#EC9131"/>
<path d="M9.99996 6.6665C9.77895 6.6665 9.56698 6.7543 9.4107 6.91058C9.25442 7.06686 9.16663 7.27882 9.16663 7.49984C9.16663 7.94186 8.99103 8.36579 8.67847 8.67835C8.36591 8.99091 7.94199 9.1665 7.49996 9.1665C7.05793 9.1665 6.63401 8.99091 6.32145 8.67835C6.00889 8.36579 5.83329 7.94186 5.83329 7.49984C5.83329 7.27882 5.7455 7.06686 5.58921 6.91058C5.43293 6.7543 5.22097 6.6665 4.99996 6.6665C4.77895 6.6665 4.56698 6.7543 4.4107 6.91058C4.25442 7.06686 4.16663 7.27882 4.16663 7.49984C4.16663 8.38389 4.51782 9.23174 5.14294 9.85686C5.76806 10.482 6.6159 10.8332 7.49996 10.8332C8.38401 10.8332 9.23186 10.482 9.85698 9.85686C10.4821 9.23174 10.8333 8.38389 10.8333 7.49984C10.8333 7.27882 10.7455 7.06686 10.5892 6.91058C10.4329 6.7543 10.221 6.6665 9.99996 6.6665Z" fill="#EC9131"/>
</svg>
