<svg width="56" height="56" viewBox="0 0 56 56" fill="none" xmlns="http://www.w3.org/2000/svg">
<path d="M52.809 11.444L44.0795 2.71448C42.3457 0.97854 39.9935 0.00215989 37.54 0H17.9834C15.53 0.00215989 13.1778 0.97854 11.444 2.71448L2.71448 11.444C0.97854 13.1778 0.00215989 15.53 0 17.9834V46.2696C0 48.7238 0.974963 51.0776 2.71041 52.8131C4.44585 54.5485 6.79962 55.5235 9.25391 55.5235H46.2696C48.7238 55.5235 51.0776 54.5485 52.8131 52.8131C54.5485 51.0776 55.5235 48.7238 55.5235 46.2696V17.9834C55.5213 15.53 54.5449 13.1778 52.809 11.444ZM15.7933 7.06382C16.3845 6.50015 17.1667 6.18064 17.9834 6.16927H37.54C38.3567 6.18064 39.139 6.50015 39.7301 7.06382L45.0049 12.3385H10.5186L15.7933 7.06382ZM46.2696 49.3542H9.25391C8.43581 49.3542 7.65123 49.0292 7.07274 48.4507C6.49426 47.8722 6.16927 47.0877 6.16927 46.2696V18.5078H49.3542V46.2696C49.3542 47.0877 49.0292 47.8722 48.4507 48.4507C47.8722 49.0292 47.0877 49.3542 46.2696 49.3542Z" fill="black"/>
<path d="M37.0157 24.6771C36.1976 24.6771 35.413 25.0021 34.8345 25.5806C34.256 26.159 33.931 26.9436 33.931 27.7617C33.931 29.3979 33.2811 30.9671 32.1241 32.1241C30.9671 33.281 29.398 33.931 27.7618 33.931C26.1256 33.931 24.5564 33.281 23.3994 32.1241C22.2425 30.9671 21.5925 29.3979 21.5925 27.7617C21.5925 26.9436 21.2675 26.159 20.689 25.5806C20.1105 25.0021 19.326 24.6771 18.5079 24.6771C17.6898 24.6771 16.9052 25.0021 16.3267 25.5806C15.7482 26.159 15.4232 26.9436 15.4232 27.7617C15.4232 31.0341 16.7232 34.1725 19.0371 36.4864C21.351 38.8003 24.4894 40.1003 27.7618 40.1003C31.0342 40.1003 34.1725 38.8003 36.4864 36.4864C38.8004 34.1725 40.1003 31.0341 40.1003 27.7617C40.1003 26.9436 39.7753 26.159 39.1968 25.5806C38.6184 25.0021 37.8338 24.6771 37.0157 24.6771Z" fill="black"/>
</svg>
