<svg width="74" height="74" viewBox="0 0 74 74" fill="none" xmlns="http://www.w3.org/2000/svg">
<path d="M63.2496 12.9445C62.8932 12.6562 62.4768 12.4515 62.0309 12.3453C61.585 12.2391 61.121 12.2342 60.673 12.331L36.8087 17.6989L12.9444 12.2696C12.4892 12.1668 12.0167 12.1692 11.5626 12.2766C11.1086 12.384 10.685 12.5936 10.3241 12.8894C9.96326 13.1852 9.67464 13.5594 9.48022 13.9835C9.28579 14.4077 9.1907 14.8706 9.20216 15.337V52.7592C9.18483 53.4682 9.41376 54.1614 9.84999 54.7207C10.2862 55.2799 10.9028 55.6707 11.5947 55.8266L36.1338 61.3479H36.8087H37.4835L62.0226 55.8266C62.7146 55.6707 63.3311 55.2799 63.7673 54.7207C64.2036 54.1614 64.4325 53.4682 64.4152 52.7592V15.337C64.413 14.8763 64.3072 14.4219 64.1054 14.0077C63.9036 13.5935 63.6111 13.2301 63.2496 12.9445ZM15.3369 19.1713L33.7413 23.3122V54.4462L15.3369 50.3053V19.1713ZM58.2804 50.3053L39.8761 54.4462V23.3122L58.2804 19.1713V50.3053Z" fill="#EC9131"/>
</svg>
