<svg width="93" height="104" viewBox="0 0 93 104" fill="none" xmlns="http://www.w3.org/2000/svg">
<path d="M90.2922 68.1038L81.0107 58.7708V35.7734C81.1342 27.2335 78.1637 18.9373 72.6477 12.4167C67.1317 5.89611 59.4428 1.59142 51.0006 0.297507C46.1011 -0.347724 41.1203 0.0593596 36.3906 1.4916C31.6609 2.92383 27.291 5.34829 23.5725 8.60319C19.854 11.8581 16.8724 15.8686 14.8267 20.3671C12.7809 24.8656 11.7181 29.7487 11.7091 34.6905V58.7708L2.4276 68.1038C1.26177 69.2891 0.471186 70.7917 0.154671 72.4238C-0.161845 74.0559 0.00975594 75.7452 0.648019 77.2803C1.28628 78.8154 2.36289 80.1284 3.74325 81.055C5.12361 81.9816 6.74649 82.4808 8.40899 82.4901H25.7344V84.2433C25.9753 89.478 28.2814 94.4038 32.1475 97.9413C36.0136 101.479 41.1244 103.339 46.3599 103.116C51.5954 103.339 56.7062 101.479 60.5723 97.9413C64.4384 94.4038 66.7445 89.478 66.9854 84.2433V82.4901H84.3108C85.9733 82.4808 87.5962 81.9816 88.9765 81.055C90.3569 80.1284 91.4335 78.8154 92.0718 77.2803C92.71 75.7452 92.8816 74.0559 92.5651 72.4238C92.2486 70.7917 91.458 69.2891 90.2922 68.1038ZM56.6726 84.2433C56.3867 86.7235 55.1548 88.9977 53.2337 90.5923C51.3126 92.1868 48.8503 92.9786 46.3599 92.8028C43.8695 92.9786 41.4072 92.1868 39.4861 90.5923C37.565 88.9977 36.3331 86.7235 36.0472 84.2433V82.4901H56.6726V84.2433ZM12.895 72.1773L18.9796 66.0928C19.9447 65.1334 20.7104 63.9925 21.2325 62.7359C21.7546 61.4792 22.0229 60.1316 22.0218 58.7708V34.6905C22.0246 31.212 22.7715 27.7744 24.2122 24.6083C25.653 21.4422 27.7543 18.6209 30.3751 16.3338C32.9606 13.9912 36.0243 12.2384 39.3541 11.1967C42.684 10.155 46.2004 9.84936 49.66 10.3009C55.6232 11.2691 61.036 14.359 64.9017 19.0016C68.7674 23.6443 70.8258 29.5271 70.698 35.5671V58.7708C70.6901 60.128 70.9503 61.4734 71.4635 62.7299C71.9767 63.9864 72.7329 65.1292 73.6887 66.0928L79.8248 72.1773H12.895Z" fill="black"/>
</svg>
