<svg width="124" height="126" viewBox="0 0 124 126" fill="none" xmlns="http://www.w3.org/2000/svg">
<path d="M105.809 80.4285L96.5274 71.0955V48.0981C96.6509 39.5582 93.6804 31.262 88.1644 24.7414C82.6484 18.2208 74.9595 13.9161 66.5173 12.6222C61.6178 11.977 56.637 12.3841 51.9073 13.8163C47.1775 15.2485 42.8076 17.673 39.0891 20.9279C35.3706 24.1828 32.3891 28.1933 30.3433 32.6918C28.2976 37.1903 27.2348 42.0734 27.2257 47.0152V71.0955L17.9443 80.4285C16.7784 81.6138 15.9878 83.1164 15.6713 84.7485C15.3548 86.3807 15.5264 88.0699 16.1647 89.605C16.8029 91.1401 17.8796 92.4531 19.2599 93.3797C20.6403 94.3063 22.2631 94.8055 23.9257 94.8148H41.2511V96.568C41.4919 101.803 43.7981 106.729 47.6642 110.266C51.5303 113.804 56.6411 115.664 61.8766 115.44C67.1121 115.664 72.2228 113.804 76.0889 110.266C79.9551 106.729 82.2612 101.803 82.5021 96.568V94.8148H99.8275C101.49 94.8055 103.113 94.3063 104.493 93.3797C105.874 92.4531 106.95 91.1401 107.588 89.605C108.227 88.0699 108.398 86.3807 108.082 84.7485C107.765 83.1164 106.975 81.6138 105.809 80.4285ZM72.1893 96.568C71.9033 99.0482 70.6715 101.322 68.7504 102.917C66.8293 104.511 64.367 105.303 61.8766 105.128C59.3861 105.303 56.9239 104.511 55.0027 102.917C53.0816 101.322 51.8498 99.0482 51.5638 96.568V94.8148H72.1893V96.568ZM28.4117 84.5021L34.4962 78.4175C35.4613 77.4581 36.227 76.3172 36.7492 75.0606C37.2713 73.8039 37.5396 72.4563 37.5385 71.0955V47.0152C37.5413 43.5367 38.2881 40.0991 39.7289 36.933C41.1696 33.7669 43.2709 30.9457 45.8918 28.6585C48.4773 26.3159 51.541 24.5631 54.8708 23.5214C58.2006 22.4797 61.717 22.1741 65.1766 22.6256C71.1399 23.5938 76.5526 26.6837 80.4183 31.3263C84.284 35.969 86.3425 41.8518 86.2146 47.8918V71.0955C86.2068 72.4527 86.4669 73.7981 86.9802 75.0546C87.4934 76.3111 88.2495 77.4539 89.2053 78.4175L95.3414 84.5021H28.4117Z" fill="black"/>
<path d="M71 11C71 15.1779 67.2216 19 62 19C56.7784 19 53 15.1779 53 11C53 6.8221 56.7784 3 62 3C67.2216 3 71 6.8221 71 11Z" stroke="black" stroke-width="6"/>
</svg>
