<svg width="93" height="112" viewBox="0 0 93 112" fill="none" xmlns="http://www.w3.org/2000/svg">
<path d="M90.2922 76.1038L81.0107 66.7708V43.7734C81.1342 35.2335 78.1637 26.9373 72.6477 20.4167C67.1317 13.8961 59.4428 9.59142 51.0006 8.29751C46.1011 7.65228 41.1203 8.05936 36.3906 9.4916C31.6609 10.9238 27.291 13.3483 23.5725 16.6032C19.854 19.8581 16.8724 23.8686 14.8267 28.3671C12.7809 32.8656 11.7181 37.7487 11.7091 42.6905V66.7708L2.4276 76.1038C1.26177 77.2891 0.471186 78.7917 0.154671 80.4238C-0.161845 82.0559 0.00975594 83.7452 0.648019 85.2803C1.28628 86.8154 2.36289 88.1284 3.74325 89.055C5.12361 89.9816 6.74649 90.4808 8.40899 90.4901H25.7344V92.2433C25.9753 97.478 28.2814 102.404 32.1475 105.941C36.0136 109.479 41.1244 111.339 46.3599 111.116C51.5954 111.339 56.7062 109.479 60.5723 105.941C64.4384 102.404 66.7445 97.478 66.9854 92.2433V90.4901H84.3108C85.9733 90.4808 87.5962 89.9816 88.9765 89.055C90.3569 88.1284 91.4335 86.8154 92.0718 85.2803C92.71 83.7452 92.8816 82.0559 92.5651 80.4238C92.2486 78.7917 91.458 77.2891 90.2922 76.1038ZM56.6726 92.2433C56.3867 94.7235 55.1548 96.9977 53.2337 98.5923C51.3126 100.187 48.8503 100.979 46.3599 100.803C43.8695 100.979 41.4072 100.187 39.4861 98.5923C37.565 96.9977 36.3331 94.7235 36.0472 92.2433V90.4901H56.6726V92.2433ZM12.895 80.1773L18.9796 74.0928C19.9447 73.1334 20.7104 71.9925 21.2325 70.7359C21.7546 69.4792 22.0229 68.1316 22.0218 66.7708V42.6905C22.0246 39.212 22.7715 35.7744 24.2122 32.6083C25.653 29.4422 27.7543 26.6209 30.3751 24.3338C32.9606 21.9912 36.0243 20.2384 39.3541 19.1967C42.684 18.155 46.2004 17.8494 49.66 18.3009C55.6232 19.2691 61.036 22.359 64.9017 27.0016C68.7674 31.6443 70.8258 37.5271 70.698 43.5671V66.7708C70.6901 68.128 70.9503 69.4734 71.4635 70.7299C71.9767 71.9864 72.7329 73.1292 73.6887 74.0928L79.8248 80.1773H12.895Z" fill="black"/>
<circle cx="73" cy="20" r="20" fill="#EC9131"/>
</svg>
