<svg width="124" height="124" viewBox="0 0 124 124" fill="none" xmlns="http://www.w3.org/2000/svg">
<path d="M105.809 78.4285L96.5274 69.0955V46.0981C96.6509 37.5582 93.6804 29.262 88.1644 22.7414C82.6484 16.2208 74.9595 11.9161 66.5173 10.6222C61.6178 9.97698 56.637 10.3841 51.9073 11.8163C47.1775 13.2485 42.8076 15.673 39.0891 18.9279C35.3706 22.1828 32.389 26.1933 30.3433 30.6918C28.2976 35.1903 27.2348 40.0734 27.2257 45.0152V69.0955L17.9443 78.4285C16.7784 79.6138 15.9878 81.1164 15.6713 82.7485C15.3548 84.3807 15.5264 86.0699 16.1647 87.605C16.8029 89.1401 17.8796 90.4531 19.2599 91.3797C20.6403 92.3063 22.2631 92.8055 23.9257 92.8148H41.2511V94.568C41.4919 99.8027 43.7981 104.729 47.6642 108.266C51.5303 111.804 56.6411 113.664 61.8766 113.44C67.1121 113.664 72.2228 111.804 76.0889 108.266C79.9551 104.729 82.2612 99.8027 82.5021 94.568V92.8148H99.8275C101.49 92.8055 103.113 92.3063 104.493 91.3797C105.874 90.4531 106.95 89.1401 107.588 87.605C108.227 86.0699 108.398 84.3807 108.082 82.7485C107.765 81.1164 106.975 79.6138 105.809 78.4285ZM72.1893 94.568C71.9033 97.0482 70.6715 99.3224 68.7504 100.917C66.8293 102.511 64.367 103.303 61.8766 103.128C59.3861 103.303 56.9239 102.511 55.0027 100.917C53.0816 99.3224 51.8498 97.0482 51.5638 94.568V92.8148H72.1893V94.568ZM28.4117 82.5021L34.4962 76.4175C35.4613 75.4581 36.227 74.3172 36.7492 73.0606C37.2713 71.8039 37.5396 70.4563 37.5385 69.0955V45.0152C37.5413 41.5367 38.2881 38.0991 39.7289 34.933C41.1696 31.7669 43.2709 28.9457 45.8918 26.6585C48.4773 24.3159 51.541 22.5631 54.8708 21.5214C58.2006 20.4797 61.717 20.1741 65.1766 20.6256C71.1399 21.5938 76.5526 24.6837 80.4183 29.3263C84.284 33.969 86.3425 39.8518 86.2146 45.8918V69.0955C86.2068 70.4527 86.4669 71.7981 86.9801 73.0546C87.4934 74.3111 88.2495 75.4539 89.2053 76.4175L95.3414 82.5021H28.4117Z" fill="#EC9131"/>
</svg>
