<svg width="124" height="126" viewBox="0 0 124 126" fill="none" xmlns="http://www.w3.org/2000/svg">
<path d="M105.809 80.4285L96.5273 71.0955V48.0981C96.6508 39.5582 93.6803 31.262 88.1643 24.7414C82.6484 18.2208 74.9594 13.9161 66.5172 12.6222C61.6177 11.977 56.6369 12.3841 51.9072 13.8163C47.1775 15.2485 42.8076 17.673 39.0891 20.9279C35.3706 24.1828 32.389 28.1933 30.3433 32.6918C28.2975 37.1903 27.2347 42.0734 27.2257 47.0152V71.0955L17.9442 80.4285C16.7784 81.6138 15.9878 83.1164 15.6713 84.7485C15.3548 86.3807 15.5264 88.0699 16.1646 89.605C16.8029 91.1401 17.8795 92.4531 19.2599 93.3797C20.6402 94.3063 22.2631 94.8055 23.9256 94.8148H41.251V96.568C41.4919 101.803 43.798 106.729 47.6641 110.266C51.5302 113.804 56.641 115.664 61.8765 115.44C67.112 115.664 72.2228 113.804 76.0889 110.266C79.955 106.729 82.2611 101.803 82.502 96.568V94.8148H99.8274C101.49 94.8055 103.113 94.3063 104.493 93.3797C105.874 92.4531 106.95 91.1401 107.588 89.605C108.227 88.0699 108.398 86.3807 108.082 84.7485C107.765 83.1164 106.975 81.6138 105.809 80.4285ZM72.1893 96.568C71.9033 99.0482 70.6714 101.322 68.7503 102.917C66.8292 104.511 64.367 105.303 61.8765 105.128C59.3861 105.303 56.9238 104.511 55.0027 102.917C53.0816 101.322 51.8497 99.0482 51.5638 96.568V94.8148H72.1893V96.568ZM28.4116 84.5021L34.4962 78.4175C35.4613 77.4581 36.227 76.3172 36.7491 75.0606C37.2712 73.8039 37.5395 72.4563 37.5384 71.0955V47.0152C37.5412 43.5367 38.2881 40.0991 39.7288 36.933C41.1696 33.7669 43.2709 30.9457 45.8917 28.6585C48.4772 26.3159 51.5409 24.5631 54.8707 23.5214C58.2006 22.4797 61.717 22.1741 65.1766 22.6256C71.1398 23.5938 76.5526 26.6837 80.4183 31.3263C84.284 35.969 86.3424 41.8518 86.2146 47.8918V71.0955C86.2067 72.4527 86.4669 73.7981 86.9801 75.0546C87.4933 76.3111 88.2495 77.4539 89.2053 78.4175L95.3414 84.5021H28.4116Z" fill="#EC9131"/>
<path d="M22.3575 39.485C20.7552 39.7548 19.2117 38.6962 19.0826 37.0765C18.8687 34.3918 19.0704 31.6872 19.6859 29.0467C20.5236 25.4538 22.1112 22.05 24.3583 19.0297C26.6053 16.0095 29.4678 13.4319 32.7821 11.4441C35.3245 9.91932 38.0946 8.76452 40.997 8.01469C42.4717 7.63369 43.9057 8.63818 44.1947 10.1337V10.1337C44.4937 11.6811 43.4533 13.1563 41.9386 13.5915C39.8561 14.1899 37.8663 15.0514 36.0257 16.1553C33.3742 17.7455 31.0843 19.8076 29.2866 22.2238C27.489 24.64 26.2189 27.363 25.5487 30.2374C25.1118 32.1115 24.9356 34.026 25.0209 35.9339C25.096 37.6135 24.0155 39.2059 22.3575 39.485V39.485Z" fill="#EC9131"/>
<path d="M12.3575 34.485C10.7552 34.7548 9.21166 33.6962 9.08261 32.0765C8.8687 29.3918 9.07035 26.6872 9.68593 24.0467C10.5236 20.4538 12.1112 17.05 14.3583 14.0297C16.6053 11.0095 19.4678 8.43186 22.7821 6.44408C25.3245 4.91932 28.0946 3.76452 30.997 3.01469C32.4717 2.63369 33.9057 3.63818 34.1947 5.1337V5.1337C34.4937 6.68111 33.4533 8.15629 31.9386 8.59152C29.8561 9.18987 27.8663 10.0514 26.0257 11.1553C23.3742 12.7455 21.0843 14.8076 19.2866 17.2238C17.489 19.64 16.2189 22.363 15.5487 25.2374C15.1118 27.1115 14.9356 29.026 15.0209 30.9339C15.096 32.6135 14.0155 34.2059 12.3575 34.485V34.485Z" fill="#EC9131"/>
<path d="M80.5271 10.2548C80.8585 8.77092 82.3157 7.80783 83.7777 8.22534C86.6592 9.04825 89.3966 10.2732 91.8953 11.8626C95.1508 13.9334 97.9374 16.5824 100.096 19.6583C102.255 22.7343 103.743 26.1769 104.476 29.7897C105.016 32.4494 105.138 35.1628 104.845 37.8456C104.668 39.4556 103.103 40.468 101.513 40.1587V40.1587C99.8597 39.837 98.8203 38.2123 98.9438 36.5327C99.0836 34.6299 98.9628 32.714 98.5808 30.8318C97.9944 27.9416 96.8037 25.1874 95.0768 22.7267C93.3499 20.2659 91.1206 18.1467 88.5162 16.4901C86.7123 15.3426 84.7529 14.4326 82.6936 13.7821C81.1861 13.306 80.1825 11.7976 80.5271 10.2548V10.2548Z" fill="#EC9131"/>
<path d="M90.5271 5.25477C90.8585 3.77092 92.3157 2.80783 93.7777 3.22534C96.6592 4.04825 99.3966 5.27316 101.895 6.86258C105.151 8.9334 107.937 11.5824 110.096 14.6583C112.255 17.7343 113.743 21.1769 114.476 24.7897C115.016 27.4494 115.138 30.1628 114.845 32.8456C114.668 34.4556 113.103 35.468 111.513 35.1587V35.1587C109.86 34.837 108.82 33.2123 108.944 31.5327C109.084 29.6299 108.963 27.714 108.581 25.8318C107.994 22.9416 106.804 20.1874 105.077 17.7267C103.35 15.2659 101.121 13.1467 98.5162 11.4901C96.7123 10.3426 94.7529 9.43261 92.6936 8.78214C91.1861 8.30597 90.1825 6.79764 90.5271 5.25477V5.25477Z" fill="#EC9131"/>
<path d="M71 11C71 15.1779 67.2216 19 62 19C56.7784 19 53 15.1779 53 11C53 6.8221 56.7784 3 62 3C67.2216 3 71 6.8221 71 11Z" stroke="#EC9131" stroke-width="6"/>
</svg>
