<svg width="15" height="15" viewBox="0 0 15 15" fill="none" xmlns="http://www.w3.org/2000/svg">
<path d="M7.5 10.4751C8.01777 10.4751 8.4375 10.1374 8.4375 9.72094C8.4375 9.30444 8.01777 8.9668 7.5 8.9668C6.98223 8.9668 6.5625 9.30444 6.5625 9.72094C6.5625 10.1374 6.98223 10.4751 7.5 10.4751Z" fill="#EC9131"/>
<path d="M12.1875 4.44193H11.25V3.01659C11.25 2.21654 10.8549 1.44926 10.1517 0.883539C9.44839 0.317819 8.49456 0 7.5 0C6.50544 0 5.55161 0.317819 4.84835 0.883539C4.14509 1.44926 3.75 2.21654 3.75 3.01659V4.44193H2.8125C2.06658 4.44193 1.35121 4.68029 0.823762 5.10459C0.296316 5.52888 0 6.10434 0 6.70437V12.7376C0 13.3376 0.296316 13.9131 0.823762 14.3373C1.35121 14.7616 2.06658 15 2.8125 15H12.1875C12.9334 15 13.6488 14.7616 14.1762 14.3373C14.7037 13.9131 15 13.3376 15 12.7376V6.70437C15 6.10434 14.7037 5.52888 14.1762 5.10459C13.6488 4.68029 12.9334 4.44193 12.1875 4.44193ZM5.625 3.01659C5.61239 2.6058 5.80261 2.20773 6.15401 1.9095C6.50542 1.61127 6.9894 1.43718 7.5 1.42534C8.0106 1.43718 8.49458 1.61127 8.84599 1.9095C9.19739 2.20773 9.38761 2.6058 9.375 3.01659V4.44193H5.625V3.01659ZM7.5 11.9834C6.94374 11.9834 6.39997 11.8507 5.93746 11.6021C5.47495 11.3535 5.11446 11.0002 4.90159 10.5868C4.68872 10.1734 4.63302 9.71846 4.74154 9.27958C4.85006 8.84071 5.11793 8.43758 5.51126 8.12118C5.9046 7.80477 6.40574 7.58929 6.95131 7.50199C7.49688 7.4147 8.06238 7.4595 8.5763 7.63074C9.09021 7.80198 9.52947 8.09196 9.83851 8.46402C10.1475 8.83608 10.3125 9.2735 10.3125 9.72097C10.3125 10.321 10.0162 10.8965 9.48874 11.3208C8.96129 11.745 8.24592 11.9834 7.5 11.9834Z" fill="#EC9131"/>
</svg>
