<svg width="38" height="48" viewBox="0 0 38 48" fill="none" xmlns="http://www.w3.org/2000/svg">
<path d="M18.9072 32.8277C20.2125 32.8277 21.2706 31.7696 21.2706 30.4643C21.2706 29.159 20.2125 28.1009 18.9072 28.1009C17.602 28.1009 16.5438 29.159 16.5438 30.4643C16.5438 31.7696 17.602 32.8277 18.9072 32.8277Z" fill="black"/>
<path d="M30.7243 13.9205H28.3609V9.45362C28.3609 6.94636 27.3648 4.5418 25.592 2.7689C23.8191 0.996003 21.4145 0 18.9072 0C16.4 0 13.9954 0.996003 12.2225 2.7689C10.4496 4.5418 9.45362 6.94636 9.45362 9.45362V13.9205H7.09021C5.20977 13.9205 3.40635 14.6675 2.07668 15.9971C0.747003 17.3268 0 19.1302 0 21.0107V39.9179C0 41.7983 0.747003 43.6018 2.07668 44.9314C3.40635 46.2611 5.20977 47.0081 7.09021 47.0081H30.7243C32.6047 47.0081 34.4081 46.2611 35.7378 44.9314C37.0675 43.6018 37.8145 41.7983 37.8145 39.9179V21.0107C37.8145 19.1302 37.0675 17.3268 35.7378 15.9971C34.4081 14.6675 32.6047 13.9205 30.7243 13.9205ZM14.1804 9.45362C14.1486 8.16626 14.6282 6.91875 15.5141 5.98413C16.3999 5.04952 17.62 4.50395 18.9072 4.46683C20.1944 4.50395 21.4145 5.04952 22.3004 5.98413C23.1863 6.91875 23.6658 8.16626 23.634 9.45362V13.9205H14.1804V9.45362ZM18.9072 37.5545C17.5049 37.5545 16.1341 37.1387 14.9681 36.3596C13.8021 35.5805 12.8934 34.4732 12.3567 33.1776C11.8201 31.882 11.6797 30.4564 11.9533 29.0811C12.2268 27.7057 12.9021 26.4423 13.8937 25.4507C14.8853 24.4592 16.1486 23.7839 17.524 23.5103C18.8994 23.2367 20.325 23.3771 21.6205 23.9138C22.9161 24.4504 24.0234 25.3592 24.8025 26.5252C25.5816 27.6911 25.9974 29.062 25.9974 30.4643C25.9974 32.3447 25.2504 34.1481 23.9208 35.4778C22.5911 36.8075 20.7877 37.5545 18.9072 37.5545Z" fill="black"/>
</svg>
