<svg width="74" height="74" viewBox="0 0 74 74" fill="none" xmlns="http://www.w3.org/2000/svg">
<path d="M46.0109 49.0784H27.6065C26.793 49.0784 26.0128 49.4016 25.4375 49.9768C24.8623 50.5521 24.5391 51.3323 24.5391 52.1458C24.5391 52.9593 24.8623 53.7395 25.4375 54.3148C26.0128 54.89 26.793 55.2132 27.6065 55.2132H46.0109C46.8244 55.2132 47.6046 54.89 48.1798 54.3148C48.7551 53.7395 49.0782 52.9593 49.0782 52.1458C49.0782 51.3323 48.7551 50.5521 48.1798 49.9768C47.6046 49.4016 46.8244 49.0784 46.0109 49.0784Z" fill="#231F20"/>
<path d="M27.6065 42.9436H36.8087C37.6222 42.9436 38.4024 42.6204 38.9777 42.0452C39.5529 41.47 39.8761 40.6898 39.8761 39.8762C39.8761 39.0627 39.5529 38.2825 38.9777 37.7073C38.4024 37.132 37.6222 36.8088 36.8087 36.8088H27.6065C26.793 36.8088 26.0128 37.132 25.4375 37.7073C24.8623 38.2825 24.5391 39.0627 24.5391 39.8762C24.5391 40.6898 24.8623 41.47 25.4375 42.0452C26.0128 42.6204 26.793 42.9436 27.6065 42.9436Z" fill="#231F20"/>
<path d="M60.5502 25.5515L43.8636 7.14719C43.5769 6.82943 43.2268 6.57521 42.8358 6.40088C42.4449 6.22655 42.0218 6.13596 41.5938 6.13495H20.122C19.1029 6.1228 18.0914 6.31151 17.1451 6.69032C16.1989 7.06913 15.3366 7.63062 14.6074 8.34272C13.8783 9.05482 13.2965 9.90358 12.8953 10.8405C12.4942 11.7775 12.2815 12.7843 12.2695 13.8034V59.8143C12.2815 60.8334 12.4942 61.8402 12.8953 62.7772C13.2965 63.7141 13.8783 64.5629 14.6074 65.275C15.3366 65.9871 16.1989 66.5486 17.1451 66.9274C18.0914 67.3062 19.1029 67.4949 20.122 67.4827H53.4953C54.5144 67.4949 55.526 67.3062 56.4722 66.9274C57.4184 66.5486 58.2807 65.9871 59.0099 65.275C59.739 64.5629 60.3208 63.7141 60.722 62.7772C61.1231 61.8402 61.3358 60.8334 61.3478 59.8143V27.6067C61.3458 26.8465 61.0616 26.1141 60.5502 25.5515ZM42.9434 15.3371L51.3481 24.5393H45.2133C44.8921 24.5199 44.5779 24.4367 44.2892 24.2946C44.0005 24.1525 43.743 23.9543 43.5317 23.7116C43.3204 23.4689 43.1595 23.1865 43.0585 22.881C42.9575 22.5754 42.9184 22.2528 42.9434 21.932V15.3371ZM53.4953 61.348H20.122C19.9085 61.3604 19.6946 61.3306 19.4925 61.2602C19.2905 61.1897 19.1044 61.0802 18.9448 60.9377C18.7852 60.7952 18.6554 60.6226 18.5626 60.4298C18.4699 60.2371 18.4161 60.0279 18.4043 59.8143V13.8034C18.4161 13.5898 18.4699 13.3806 18.5626 13.1879C18.6554 12.9951 18.7852 12.8225 18.9448 12.68C19.1044 12.5375 19.2905 12.428 19.4925 12.3575C19.6946 12.2871 19.9085 12.2573 20.122 12.2697H36.8087V21.932C36.7591 24.1915 37.6054 26.3789 39.1628 28.0167C40.7201 29.6545 42.8621 30.6098 45.1213 30.6741H55.213V59.8143C55.2012 60.0279 55.1474 60.2371 55.0547 60.4298C54.9619 60.6226 54.8321 60.7952 54.6725 60.9377C54.5129 61.0802 54.3268 61.1897 54.1248 61.2602C53.9227 61.3306 53.7088 61.3604 53.4953 61.348Z" fill="#231F20"/>
</svg>
