<svg width="74" height="74" viewBox="0 0 74 74" fill="none" xmlns="http://www.w3.org/2000/svg">
<path d="M55.213 9.20215H18.4043C15.9638 9.20215 13.6231 10.1717 11.8974 11.8974C10.1717 13.6231 9.20215 15.9638 9.20215 18.4043V55.213C9.20215 57.6536 10.1717 59.9942 11.8974 61.7199C13.6231 63.4457 15.9638 64.4152 18.4043 64.4152H55.213C57.6536 64.4152 59.9942 63.4457 61.7199 61.7199C63.4457 59.9942 64.4152 57.6536 64.4152 55.213V18.4043C64.4152 15.9638 63.4457 13.6231 61.7199 11.8974C59.9942 10.1717 57.6536 9.20215 55.213 9.20215ZM58.2804 55.213C58.2804 56.0265 57.9572 56.8067 57.382 57.382C56.8067 57.9572 56.0265 58.2804 55.213 58.2804H18.4043C17.5908 58.2804 16.8106 57.9572 16.2353 57.382C15.6601 56.8067 15.3369 56.0265 15.3369 55.213V33.7413H58.2804V55.213ZM15.3369 27.6065V18.4043C15.3369 17.5908 15.6601 16.8106 16.2353 16.2353C16.8106 15.6601 17.5908 15.3369 18.4043 15.3369H55.213C56.0265 15.3369 56.8067 15.6601 57.382 16.2353C57.9572 16.8106 58.2804 17.5908 58.2804 18.4043V27.6065H15.3369Z" fill="#231F20"/>
<path d="M24.5391 24.6312C26.2331 24.6312 27.6065 23.2579 27.6065 21.5638C27.6065 19.8698 26.2331 18.4965 24.5391 18.4965C22.845 18.4965 21.4717 19.8698 21.4717 21.5638C21.4717 23.2579 22.845 24.6312 24.5391 24.6312Z" fill="#231F20"/>
<path d="M36.8087 24.6312C38.5028 24.6312 39.8761 23.2579 39.8761 21.5638C39.8761 19.8698 38.5028 18.4965 36.8087 18.4965C35.1147 18.4965 33.7413 19.8698 33.7413 21.5638C33.7413 23.2579 35.1147 24.6312 36.8087 24.6312Z" fill="#231F20"/>
</svg>
