<svg width="15" height="15" viewBox="0 0 15 15" fill="none" xmlns="http://www.w3.org/2000/svg">
<path d="M14.5167 6.13314L8.09171 0.221895C8.01424 0.151584 7.92207 0.0957768 7.82053 0.0576923C7.71898 0.0196078 7.61006 0 7.50005 0C7.39004 0 7.28112 0.0196078 7.17957 0.0576923C7.07802 0.0957768 6.98585 0.151584 6.90838 0.221895L0.483426 6.14064C0.327958 6.28172 0.205174 6.4492 0.122202 6.63335C0.0392304 6.8175 -0.0022748 7.01465 9.61363e-05 7.21336V13.4997C-0.000549546 13.8837 0.162406 14.2533 0.455405 14.5324C0.748404 14.8115 1.14914 14.9789 1.57509 15H13.425C13.851 14.9789 14.2517 14.8115 14.5447 14.5324C14.8377 14.2533 15.0006 13.8837 15 13.4997V7.21336C15.0007 6.81048 14.8273 6.42314 14.5167 6.13314ZM5.83339 13.4997V8.99874H9.1667V13.4997H5.83339ZM13.3333 13.4997H10.8334V8.24858C10.8334 8.04963 10.7456 7.85882 10.5893 7.71814C10.433 7.57746 10.221 7.49842 10 7.49842H5.00006C4.77905 7.49842 4.56709 7.57746 4.41081 7.71814C4.25453 7.85882 4.16674 8.04963 4.16674 8.24858V13.4997H1.66675V7.18336L7.50005 1.81973L13.3333 7.21336V13.4997Z" fill="#EC9131"/>
</svg>
