<svg width="43" height="48" viewBox="0 0 43 48" fill="none" xmlns="http://www.w3.org/2000/svg">
<path d="M41.1708 19.3227L22.9489 0.699091C22.7292 0.477573 22.4678 0.301749 22.1798 0.181762C21.8918 0.0617752 21.5829 0 21.2709 0C20.9589 0 20.65 0.0617752 20.362 0.181762C20.074 0.301749 19.8126 0.477573 19.5929 0.699091L1.37105 19.3463C0.930123 19.7908 0.581894 20.3185 0.346578 20.8987C0.111262 21.4788 -0.00645157 22.1 0.000272652 22.726V42.5313C-0.00155857 43.7412 0.4606 44.9057 1.29158 45.785C2.12255 46.6644 3.25908 47.1916 4.46711 47.2581H38.0747C39.2827 47.1916 40.4193 46.6644 41.2502 45.785C42.0812 44.9057 42.5434 43.7412 42.5415 42.5313V22.726C42.5434 21.4567 42.0519 20.2364 41.1708 19.3227ZM16.5441 42.5313V28.3509H25.9977V42.5313H16.5441ZM37.8147 42.5313H30.7245V25.9875C30.7245 25.3607 30.4755 24.7596 30.0323 24.3163C29.5891 23.8731 28.9879 23.6241 28.3611 23.6241H14.1807C13.5539 23.6241 12.9527 23.8731 12.5095 24.3163C12.0663 24.7596 11.8173 25.3607 11.8173 25.9875V42.5313H4.72708V22.6315L21.2709 5.73314L37.8147 22.726V42.5313Z" fill="black"/>
</svg>
