<svg width="93" height="93" viewBox="0 0 93 93" fill="none" xmlns="http://www.w3.org/2000/svg">
<path d="M79.5391 74.0855L66.4811 61.0658C70.6941 55.6984 72.9802 49.0702 72.9717 42.2468C72.9717 36.17 71.1697 30.2296 67.7936 25.1769C64.4175 20.1242 59.6189 16.1862 54.0047 13.8607C48.3905 11.5352 42.2127 10.9267 36.2526 12.1122C30.2926 13.2978 24.8179 16.224 20.521 20.521C16.224 24.8179 13.2978 30.2926 12.1122 36.2526C10.9267 42.2127 11.5352 48.3905 13.8607 54.0047C16.1862 59.6189 20.1242 64.4175 25.1769 67.7936C30.2296 71.1697 36.17 72.9717 42.2468 72.9717C49.0702 72.9802 55.6984 70.6941 61.0658 66.4811L74.0855 79.5391C74.4425 79.8991 74.8673 80.1848 75.3353 80.3798C75.8033 80.5748 76.3053 80.6752 76.8123 80.6752C77.3193 80.6752 77.8213 80.5748 78.2893 80.3798C78.7573 80.1848 79.1821 79.8991 79.5391 79.5391C79.8991 79.1821 80.1848 78.7573 80.3798 78.2893C80.5748 77.8213 80.6752 77.3193 80.6752 76.8123C80.6752 76.3053 80.5748 75.8033 80.3798 75.3353C80.1848 74.8673 79.8991 74.4425 79.5391 74.0855ZM19.2031 42.2468C19.2031 37.6892 20.5546 33.2339 23.0867 29.4444C25.6187 25.6549 29.2177 22.7013 33.4283 20.9572C37.639 19.2131 42.2723 18.7567 46.7424 19.6459C51.2124 20.535 55.3184 22.7297 58.5411 25.9524C61.7638 29.1752 63.9585 33.2811 64.8477 37.7512C65.7368 42.2212 65.2805 46.8545 63.5364 51.0652C61.7922 55.2759 58.8387 58.8748 55.0492 61.4069C51.2597 63.939 46.8044 65.2905 42.2468 65.2905C36.1352 65.2905 30.274 62.8627 25.9524 58.5411C21.6309 54.2196 19.2031 48.3583 19.2031 42.2468Z" fill="#EC9131"/>
</svg>
