<svg width="47" height="47" viewBox="0 0 47 47" fill="none" xmlns="http://www.w3.org/2000/svg">
<path d="M0 0H47V47H0V0Z" fill="#EC9131"/>
<path d="M37.7721 35.06L32.2009 29.5728C33.9984 27.3108 34.9738 24.5173 34.9701 21.6416C34.9701 19.0805 34.2013 16.577 32.7609 14.4475C31.3205 12.3181 29.2732 10.6584 26.8778 9.6783C24.4825 8.69822 21.8467 8.44179 19.3039 8.94143C16.761 9.44107 14.4252 10.6743 12.5919 12.4853C10.7586 14.2962 9.51014 16.6035 9.00433 19.1154C8.49852 21.6272 8.75812 24.2308 9.7503 26.597C10.7425 28.9631 12.4227 30.9854 14.5784 32.4083C16.7341 33.8311 19.2686 34.5906 21.8613 34.5906C24.7725 34.5942 27.6004 33.6307 29.8905 31.8551L35.4453 37.3584C35.5977 37.5101 35.7789 37.6306 35.9786 37.7127C36.1783 37.7949 36.3924 37.8372 36.6087 37.8372C36.8251 37.8372 37.0392 37.7949 37.2389 37.7127C37.4386 37.6306 37.6198 37.5101 37.7721 37.3584C37.9257 37.208 38.0476 37.0289 38.1308 36.8317C38.214 36.6344 38.2568 36.4229 38.2568 36.2092C38.2568 35.9955 38.214 35.784 38.1308 35.5867C38.0476 35.3895 37.9257 35.2105 37.7721 35.06ZM12.0297 21.6416C12.0297 19.7208 12.6063 17.8431 13.6866 16.246C14.7669 14.649 16.3024 13.4042 18.0989 12.6691C19.8954 11.9341 21.8722 11.7417 23.7793 12.1165C25.6865 12.4912 27.4383 13.4162 28.8133 14.7744C30.1883 16.1326 31.1247 17.863 31.504 19.7469C31.8834 21.6308 31.6887 23.5835 30.9445 25.3581C30.2004 27.1327 28.9403 28.6495 27.3235 29.7166C25.7067 30.7838 23.8058 31.3533 21.8613 31.3533C19.2538 31.3533 16.7531 30.3301 14.9093 28.5088C13.0655 26.6875 12.0297 24.2173 12.0297 21.6416Z" fill="white"/>
</svg>
