<svg width="80" height="80" viewBox="0 0 80 80" fill="none" xmlns="http://www.w3.org/2000/svg">
<path d="M59.9999 49.9999C57.3812 50.0021 54.8679 51.0314 52.9999 52.8666L26.6666 41.1333C26.6666 40.7333 26.6666 40.3999 26.6666 39.9999C26.6666 39.5999 26.6666 39.2666 26.6666 38.8999L52.9999 27.1333C54.6493 28.75 56.8075 29.7459 59.1079 29.952C61.4083 30.158 63.7091 29.5614 65.6195 28.2635C67.5299 26.9656 68.9322 25.0464 69.5881 22.8319C70.2441 20.6174 70.1133 18.2441 69.2179 16.1151C68.3225 13.9861 66.7178 12.2327 64.6763 11.1526C62.6348 10.0726 60.2823 9.73247 58.0185 10.1901C55.7547 10.6477 53.7191 11.8748 52.2574 13.6631C50.7957 15.4513 49.998 17.6903 49.9999 19.9999V21.1333L23.6666 32.8666C22.2611 31.4858 20.4791 30.5509 18.5441 30.1794C16.6092 29.8078 14.6076 30.0161 12.7907 30.7782C10.9737 31.5402 9.42237 32.822 8.33136 34.4626C7.24036 36.1033 6.65833 38.0297 6.65833 39.9999C6.65833 41.9702 7.24036 43.8966 8.33136 45.5372C9.42237 47.1779 10.9737 48.4597 12.7907 49.2217C14.6076 49.9837 16.6092 50.1921 18.5441 49.8205C20.4791 49.449 22.2611 48.5141 23.6666 47.1333L49.9999 58.8999V59.9999C49.9999 61.9777 50.5864 63.9111 51.6852 65.5556C52.784 67.2001 54.3458 68.4819 56.1731 69.2387C58.0003 69.9956 60.011 70.1936 61.9508 69.8078C63.8906 69.4219 65.6725 68.4695 67.071 67.071C68.4695 65.6725 69.4219 63.8906 69.8078 61.9508C70.1936 60.011 69.9956 58.0004 69.2387 56.1731C68.4818 54.3458 67.2001 52.784 65.5556 51.6852C63.9111 50.5864 61.9777 49.9999 59.9999 49.9999Z" fill="#EC9131"/>
</svg>
