<svg width="34" height="43" viewBox="0 0 34 43" fill="none" xmlns="http://www.w3.org/2000/svg">
<path d="M16.5438 18.9072C18.4136 18.9072 20.2413 18.3528 21.796 17.314C23.3506 16.2752 24.5623 14.7988 25.2778 13.0714C25.9934 11.3439 26.1806 9.44313 25.8158 7.60931C25.451 5.77549 24.5507 4.09102 23.2285 2.7689C21.9064 1.44679 20.222 0.546423 18.3881 0.181653C16.5543 -0.183117 14.6535 0.00409607 12.9261 0.719618C11.1987 1.43514 9.72221 2.64683 8.68343 4.20147C7.64466 5.75611 7.09021 7.58387 7.09021 9.45362C7.09021 11.9609 8.08621 14.3654 9.85911 16.1383C11.632 17.9112 14.0366 18.9072 16.5438 18.9072Z" fill="white"/>
<path d="M30.7243 42.5413C31.3511 42.5413 31.9522 42.2923 32.3954 41.849C32.8387 41.4058 33.0877 40.8047 33.0877 40.1779C33.0877 35.7902 31.3447 31.5822 28.2421 28.4796C25.1395 25.377 20.9315 23.634 16.5438 23.634C12.1561 23.634 7.94814 25.377 4.84557 28.4796C1.74301 31.5822 6.53818e-08 35.7902 0 40.1779C0 40.8047 0.249001 41.4058 0.692225 41.849C1.13545 42.2923 1.73659 42.5413 2.3634 42.5413H30.7243Z" fill="white"/>
</svg>
