<svg width="41" height="41" viewBox="0 0 41 41" fill="none" xmlns="http://www.w3.org/2000/svg">
<circle cx="20.5" cy="20.5" r="20" fill="#EC9131"/>
<path d="M16.0535 29.3666C17.6554 29.4202 19.2518 29.1521 20.7484 28.5782C22.2449 28.0043 23.6113 27.1363 24.7666 26.0254C25.922 24.9144 26.8429 23.5832 27.475 22.1103C28.1071 20.6374 28.4376 19.0527 28.4468 17.4499C29.1809 16.5414 29.7261 15.4954 30.0502 14.3732C30.0743 14.2846 30.0724 14.1908 30.0445 14.1032C30.0167 14.0157 29.9641 13.938 29.8931 13.8796C29.8221 13.8212 29.7358 13.7846 29.6445 13.7742C29.5532 13.7637 29.4608 13.7799 29.3785 13.8207C28.9944 14.0056 28.562 14.0653 28.1422 13.9915C27.7224 13.9176 27.3364 13.7139 27.0385 13.4091C26.6582 12.9926 26.1982 12.6567 25.6857 12.4213C25.1732 12.1859 24.6186 12.0557 24.0549 12.0386C23.4912 12.0214 22.9298 12.1176 22.4039 12.3213C21.8781 12.5251 21.3984 12.8324 20.9935 13.2249C20.439 13.7619 20.0329 14.4331 19.8146 15.1735C19.5963 15.9138 19.5732 16.698 19.7477 17.4499C16.1185 17.6666 13.6268 15.9441 11.6335 13.5824C11.5736 13.5146 11.4953 13.4657 11.408 13.4416C11.3208 13.4176 11.2285 13.4195 11.1423 13.4471C11.0562 13.4746 10.9799 13.5267 10.9228 13.5969C10.8658 13.6671 10.8304 13.7524 10.821 13.8424C10.4412 15.9489 10.7152 18.1211 11.606 20.0673C12.4968 22.0135 13.9618 23.6406 15.8043 24.7299C14.5689 26.1467 12.834 27.0316 10.9618 27.1999C10.8615 27.2165 10.7689 27.2641 10.697 27.336C10.6251 27.4078 10.5774 27.5004 10.5607 27.6007C10.544 27.701 10.5591 27.804 10.6038 27.8953C10.6485 27.9866 10.7207 28.0616 10.8102 28.1099C12.439 28.9239 14.2327 29.3538 16.0535 29.3666Z" fill="white"/>
</svg>
