<svg width="60" height="60" viewBox="0 0 60 60" fill="none" xmlns="http://www.w3.org/2000/svg">
<path d="M54.5231 28.6701C52.9276 25.9029 44.152 12.0165 29.2435 12.4653C15.4569 12.8143 7.47916 24.9306 5.3102 28.6701C5.09139 29.0491 4.9762 29.4791 4.9762 29.9167C4.9762 30.3543 5.09139 30.7842 5.3102 31.1632C6.88083 33.8806 15.2824 47.3681 29.9665 47.3681H30.5898C44.3764 47.019 52.3791 34.9028 54.5231 31.1632C54.7419 30.7842 54.8571 30.3543 54.8571 29.9167C54.8571 29.4791 54.7419 29.0491 54.5231 28.6701ZM30.4651 42.3819C19.7201 42.6313 12.7146 33.4319 10.5207 29.9167C13.0137 25.9029 19.5206 17.7007 29.4928 17.4514C40.188 17.1772 47.2185 26.4015 49.4373 29.9167C46.8694 33.9305 40.4374 42.1326 30.4651 42.3819Z" fill="#EC9131"/>
<path d="M29.9167 21.191C28.1909 21.191 26.5039 21.7027 25.0689 22.6615C23.634 23.6203 22.5156 24.9831 21.8552 26.5775C21.1948 28.1719 21.022 29.9264 21.3586 31.619C21.6953 33.3116 22.5264 34.8664 23.7467 36.0867C24.967 37.307 26.5218 38.138 28.2144 38.4747C29.907 38.8114 31.6614 38.6386 33.2559 37.9782C34.8503 37.3177 36.213 36.1993 37.1718 34.7644C38.1306 33.3295 38.6424 31.6425 38.6424 29.9167C38.6424 27.6025 37.7231 25.3831 36.0867 23.7467C34.4503 22.1103 32.2309 21.191 29.9167 21.191ZM29.9167 33.6563C29.1771 33.6563 28.454 33.4369 27.8391 33.026C27.2241 32.6151 26.7448 32.0311 26.4618 31.3478C26.1787 30.6644 26.1047 29.9125 26.2489 29.1871C26.3932 28.4617 26.7494 27.7954 27.2724 27.2724C27.7954 26.7494 28.4617 26.3932 29.1871 26.2489C29.9125 26.1047 30.6644 26.1787 31.3478 26.4617C32.0311 26.7448 32.6151 27.2241 33.026 27.8391C33.4369 28.454 33.6563 29.1771 33.6563 29.9167C33.6563 30.9085 33.2623 31.8597 32.561 32.561C31.8597 33.2623 30.9085 33.6563 29.9167 33.6563Z" fill="#EC9131"/>
</svg>
