<svg width="87" height="87" viewBox="0 0 87 87" fill="none" xmlns="http://www.w3.org/2000/svg">
<path d="M64.0269 48.6371C70.3556 43.4386 74.4582 36.018 75.495 27.8939C75.5516 27.4218 75.5148 26.9432 75.3864 26.4853C75.2581 26.0275 75.0409 25.5994 74.7471 25.2255C74.4533 24.8516 74.0888 24.5392 73.6743 24.3062C73.2598 24.0732 72.8035 23.9242 72.3314 23.8675C71.8593 23.8108 71.3807 23.8477 70.9228 23.9761C70.465 24.1044 70.0369 24.3216 69.663 24.6154C69.2891 24.9092 68.9767 25.2737 68.7437 25.6882C68.5107 26.1027 68.3616 26.559 68.305 27.0311C67.4455 33.0933 64.4266 38.6415 59.8032 42.6556C55.1798 46.6697 49.2628 48.88 43.14 48.88C37.0172 48.88 31.1002 46.6697 26.4768 42.6556C21.8534 38.6415 18.8345 33.0933 17.975 27.0311C17.9183 26.559 17.7693 26.1027 17.5363 25.6882C17.3033 25.2737 16.9909 24.9092 16.617 24.6154C16.2431 24.3216 15.815 24.1044 15.3572 23.9761C14.8993 23.8477 14.4207 23.8108 13.9486 23.8675C13.4765 23.9242 13.0202 24.0732 12.6057 24.3062C12.1912 24.5392 11.8267 24.8516 11.5329 25.2255C11.2391 25.5994 11.0219 26.0275 10.8936 26.4853C10.7652 26.9432 10.7283 27.4218 10.785 27.8939C11.8126 36.0126 15.9019 43.4325 22.2171 48.6371L13.9486 56.9774C13.3596 57.6652 13.0519 58.5498 13.0868 59.4546C13.1218 60.3594 13.4969 61.2176 14.1371 61.8579C14.7774 62.4981 15.6356 62.8732 16.5404 62.9082C17.4452 62.9431 18.3298 62.6354 19.0175 62.0464L28.4005 52.6994C31.8869 54.4612 35.6619 55.5816 39.545 56.0068V68.805C39.545 69.7585 39.9238 70.6729 40.598 71.3471C41.2721 72.0212 42.1865 72.4 43.14 72.4C44.0935 72.4 45.0079 72.0212 45.682 71.3471C46.3562 70.6729 46.735 69.7585 46.735 68.805V56.0068C50.6181 55.5816 54.3931 54.4612 57.8795 52.6994L67.2624 62.0464C67.9502 62.6354 68.8348 62.9431 69.7396 62.9082C70.6444 62.8732 71.5026 62.4981 72.1429 61.8579C72.7831 61.2176 73.1582 60.3594 73.1932 59.4546C73.2281 58.5498 72.9204 57.6652 72.3314 56.9774L64.0269 48.6371Z" fill="#EC9131"/>
</svg>
